<svg xmlns="http://www.w3.org/2000/svg" xmlns:xlink="http://www.w3.org/1999/xlink" xmlns:inkscape="http://www.inkscape.org/namespaces/inkscape" version="1.1" width="595.32" height="841.92007" viewBox="0 0 595.32 841.92007">
<defs>
<clipPath id="clip_0">
<path transform="matrix(.75,0,0,.75,39.9975,48.8325)" d="M.11 .33H503.15V1000.33H.11Z" clip-rule="evenodd"/>
</clipPath>
<clipPath id="clip_1">
<path transform="matrix(.75,0,0,.75,0,0)" d="M53.44 65.44V1065.44H744V65.44Z" clip-rule="evenodd"/>
</clipPath>
<clipPath id="clip_2">
<path transform="matrix(.75,0,0,.75,93.435,57.705)" d="M-71.14-.46H.38V.18H-71.14Z" clip-rule="evenodd"/>
</clipPath>
<clipPath id="clip_3">
<path transform="matrix(.75,0,0,.75,0,0)" d="M53.44 65.44V1065.44H744V65.44Z" clip-rule="evenodd"/>
</clipPath>
<clipPath id="clip_4">
<path transform="matrix(.75,0,0,.75,0,0)" d="M53.44 65.44V1065.44H744V65.44Z" clip-rule="evenodd"/>
</clipPath>
<clipPath id="clip_5">
<path transform="matrix(.75,0,0,.75,0,0)" d="M53.44 65.44V1065.44H744V65.44Z" clip-rule="evenodd"/>
</clipPath>
<clipPath id="clip_6">
<path transform="matrix(.75,0,0,.75,0,0)" d="M53.44 65.44V1065.44H744V65.44Z" clip-rule="evenodd"/>
</clipPath>
<clipPath id="clip_7">
<path transform="matrix(.75,0,0,.75,0,0)" d="M53.44 65.44V1065.44H744V65.44Z" clip-rule="evenodd"/>
</clipPath>
<clipPath id="clip_8">
<path transform="matrix(.75,0,0,.75,0,0)" d="M53.44 65.44V1065.44H744V65.44Z" clip-rule="evenodd"/>
</clipPath>
<clipPath id="clip_9">
<path transform="matrix(.75,0,0,.75,0,0)" d="M53.44 65.44V1065.44H744V65.44Z" clip-rule="evenodd"/>
</clipPath>
<clipPath id="clip_10">
<path transform="matrix(.75,0,0,.75,0,0)" d="M53.44 65.44V1065.44H744V65.44Z" clip-rule="evenodd"/>
</clipPath>
<clipPath id="clip_11">
<path transform="matrix(.75,0,0,.75,0,0)" d="M53.44 65.44V1065.44H744V65.44Z" clip-rule="evenodd"/>
</clipPath>
<clipPath id="clip_12">
<path transform="matrix(.75,0,0,.75,0,0)" d="M53.44 65.44V1065.44H744V65.44Z" clip-rule="evenodd"/>
</clipPath>
<clipPath id="clip_13">
<path transform="matrix(.75,0,0,.75,0,0)" d="M53.44 65.44V1065.44H744V65.44Z" clip-rule="evenodd"/>
</clipPath>
<clipPath id="clip_14">
<path transform="matrix(.75,0,0,.75,0,0)" d="M53.44 65.44V1065.44H744V65.44Z" clip-rule="evenodd"/>
</clipPath>
<clipPath id="clip_15">
<path transform="matrix(.75,0,0,.75,0,0)" d="M53.44 65.44V1065.44H744V65.44Z" clip-rule="evenodd"/>
</clipPath>
<clipPath id="clip_16">
<path transform="matrix(.75,0,0,.75,0,0)" d="M53.44 65.44V1065.44H744V65.44Z" clip-rule="evenodd"/>
</clipPath>
<clipPath id="clip_17">
<path transform="matrix(.75,0,0,.75,0,0)" d="M53.44 65.44V1065.44H744V65.44Z" clip-rule="evenodd"/>
</clipPath>
<clipPath id="clip_18">
<path transform="matrix(.75,0,0,.75,0,0)" d="M53.44 65.44V1065.44H744V65.44Z" clip-rule="evenodd"/>
</clipPath>
<clipPath id="clip_19">
<path transform="matrix(.75,0,0,.75,0,0)" d="M53.44 65.44V1065.44H744V65.44Z" clip-rule="evenodd"/>
</clipPath>
<clipPath id="clip_20">
<path transform="matrix(.75,0,0,.75,0,0)" d="M53.44 65.44V1065.44H744V65.44Z" clip-rule="evenodd"/>
</clipPath>
<clipPath id="clip_21">
<path transform="matrix(.75,0,0,.75,0,0)" d="M53.44 65.44V1065.44H744V65.44Z" clip-rule="evenodd"/>
</clipPath>
<clipPath id="clip_22">
<path transform="matrix(.75,0,0,.75,0,0)" d="M53.44 65.44V1065.44H744V65.44Z" clip-rule="evenodd"/>
</clipPath>
<clipPath id="clip_23">
<path transform="matrix(.75,0,0,.75,0,0)" d="M53.44 65.44V1065.44H744V65.44Z" clip-rule="evenodd"/>
</clipPath>
<clipPath id="clip_24">
<path transform="matrix(.75,0,0,.75,0,0)" d="M53.44 65.44V1065.44H744V65.44Z" clip-rule="evenodd"/>
</clipPath>
<clipPath id="clip_25">
<path transform="matrix(.75,0,0,.75,0,0)" d="M53.44 65.44V1065.44H744V65.44Z" clip-rule="evenodd"/>
</clipPath>
<clipPath id="clip_26">
<path transform="matrix(.75,0,0,.75,0,0)" d="M53.44 65.44V1065.44H744V65.44Z" clip-rule="evenodd"/>
</clipPath>
<clipPath id="clip_27">
<path transform="matrix(.75,0,0,.75,0,0)" d="M53.44 65.44V1065.44H744V65.44Z" clip-rule="evenodd"/>
</clipPath>
<clipPath id="clip_28">
<path transform="matrix(.75,0,0,.75,0,0)" d="M53.44 65.44V1065.44H744V65.44Z" clip-rule="evenodd"/>
</clipPath>
<clipPath id="clip_29">
<path transform="matrix(.75,0,0,.75,0,0)" d="M53.44 65.44V1065.44H744V65.44Z" clip-rule="evenodd"/>
</clipPath>
<clipPath id="clip_30">
<path transform="matrix(.75,0,0,.75,0,0)" d="M53.44 65.44V1065.44H744V65.44Z" clip-rule="evenodd"/>
</clipPath>
<clipPath id="clip_31">
<path transform="matrix(.75,0,0,.75,0,0)" d="M53.44 65.44V1065.44H744V65.44Z" clip-rule="evenodd"/>
</clipPath>
<clipPath id="clip_32">
<path transform="matrix(.75,0,0,.75,0,0)" d="M53.44 65.44V1065.44H744V65.44Z" clip-rule="evenodd"/>
</clipPath>
</defs>
<text xml:space="preserve" transform="matrix(.75 0 0 .75 0 0)" font-size="10.7204" font-family="F1"><tspan y="60" x="53.28 60.43042 63.539339 68.792339 74.259738 79.727138 85.62335 90.23312 95.70052 101.16792 105.777698 111.245098 116.00332 120.61309 128.35503 131.3335 136.15767 141.41066 144.98064 149.80481 693.3291 698.68936 704.15676 709.62417 715.09158 718.07 723.5374 729.0048 731.9833 737.4507">Big2_SequenceDiagram2025/10/11</tspan></text>
<text xml:space="preserve" transform="matrix(.75 0 0 .75 0 0)" font-size="10.7204" font-family="F1"><tspan y="1072" x="388 393.4674 396.14753 399.12599 401.9133">1 / 1</tspan></text>
<g clip-path="url(#clip_0)">
<path transform="matrix(.75,0,0,.75,39.9975,48.8325)" d="M0 0V0H502.74 502.97V.22 1000.03 1000.26H502.74 0-.22V1000.03 .22 0H0ZM0 .45V.22H.23V1000.03H0V999.81H502.74V1000.03H502.52V.22H502.74V.45H0Z"/>
</g>
<g clip-path="url(#clip_1)">
<path transform="matrix(.75,0,0,.75,97.005,49.3425)" d="M0 0V0 6.39 6.62H-.46V6.39 0-.23H0Z"/>
<path transform="matrix(.75,0,0,.75,96.9525,54.254999)" d="M0 0V0L-4.53 4.53-4.69 4.69-5.01 4.37-4.85 4.21-.32-.32-.16-.48 .16-.16Z"/>
</g>
<g clip-path="url(#clip_2)">
<path transform="matrix(.75,0,0,.75,93.435,57.705)" d="M0 0V0H-71.25-71.47V-.45H-71.25 0 .22V0Z"/>
</g>
<text xml:space="preserve" transform="matrix(.75 0 0 .75 0 0)" font-size="5.44021" font-family="F2"><tspan y="73.44" x="65.6 69.29934 70.38738 73.27069 76.29628 79.32187 83.02121 85.90452 88.78783 91.813419 94.696727 97.72231 100.496829 103.380138 107.35149 108.49393 111.377239 114.260547 116.00141 118.88472">Big2_SequenceDiagram</tspan></text>
<text xml:space="preserve" transform="matrix(.75 0 0 .75 0 0)" font-size="5.44021" font-family="F3" font-weight="bold"><tspan y="73.44" x="57.92 60.945585 64.31852">sd </tspan></text>
<g clip-path="url(#clip_3)">
<path transform="matrix(.75,0,0,.75,0,0)" d="M169.21 103.02V103.02 108.46H168.76V103.02ZM169.21 111.18V111.18 116.62H168.76V111.18ZM169.21 119.35V119.35 124.79H168.76V119.35ZM169.21 127.51V127.51 132.95H168.76V127.51ZM169.21 135.67V135.67 141.12H168.76V135.67ZM169.21 143.84V143.84 149.28H168.76V143.84ZM169.21 152V152 157.44H168.76V152ZM169.21 160.16V160.16 165.61H168.76V160.16ZM169.21 168.33V168.33 173.77H168.76V168.33ZM169.21 176.49V176.49 181.93H168.76V176.49ZM169.21 184.65V184.65 190.1H168.76V184.65ZM169.21 192.82V192.82 198.26H168.76V192.82ZM169.21 200.98V200.98 206.42H168.76V200.98ZM169.21 209.15V209.15 214.59H168.76V209.15ZM169.21 217.31V217.31 222.75H168.76V217.31ZM169.21 225.47V225.47 230.92H168.76V225.47ZM169.21 233.64V233.64 239.08H168.76V233.64ZM169.21 241.8V241.8 247.24H168.76V241.8ZM169.21 249.96V249.96 255.41H168.76V249.96ZM169.21 258.13V258.13 263.57H168.76V258.13ZM169.21 266.29V266.29 271.73H168.76V266.29ZM169.21 274.45V274.45 279.9H168.76V274.45ZM169.21 282.62V282.62 288.06H168.76V282.62ZM169.21 290.78V290.78 296.22H168.76V290.78ZM169.21 298.94V298.94 304.39H168.76V298.94ZM169.21 307.11V307.11 312.55H168.76V307.11ZM169.21 315.27V315.27 320.71H168.76V315.27ZM169.21 323.44V323.44 328.88H168.76V323.44ZM169.21 331.6V331.6 337.04H168.76V331.6ZM169.21 339.76V339.76 345.21H168.76V339.76ZM169.21 347.93V347.93 353.37H168.76V347.93ZM169.21 356.09V356.09 361.53H168.76V356.09ZM169.21 364.25V364.25 369.7H168.76V364.25ZM169.21 372.42V372.42 377.86H168.76V372.42ZM169.21 380.58V380.58 386.02H168.76V380.58ZM169.21 388.74V388.74 394.19H168.76V388.74ZM169.21 396.91V396.91 402.35H168.76V396.91ZM169.21 405.07V405.07 410.51H168.76V405.07ZM169.21 413.23V413.23 418.68H168.76V413.23ZM169.21 421.4V421.4 426.84H168.76V421.4ZM169.21 429.56V429.56 435H168.76V429.56ZM169.21 437.73V437.73 443.17H168.76V437.73ZM169.21 445.89V445.89 451.33H168.76V445.89ZM169.21 454.05V454.05 459.5H168.76V454.05ZM169.21 462.22V462.22 467.66H168.76V462.22ZM169.21 470.38V470.38 475.82H168.76V470.38ZM169.21 478.54V478.54 483.99H168.76V478.54ZM169.21 486.71V486.71 492.15H168.76V486.71ZM169.21 494.87V494.87 500.31H168.76V494.87ZM169.21 503.03V503.03 508.48H168.76V503.03ZM169.21 511.2V511.2 516.64H168.76V511.2ZM169.21 519.36V519.36 524.8H168.76V519.36ZM169.21 527.52V527.52 532.97H168.76V527.52ZM169.21 535.69V535.69 541.13H168.76V535.69ZM169.21 543.85V543.85 549.29H168.76V543.85ZM169.21 552.02V552.02 557.46H168.76V552.02ZM169.21 560.18V560.18 565.62H168.76V560.18ZM169.21 568.34V568.34 573.79H168.76V568.34ZM169.21 576.51V576.51 581.95H168.76V576.51ZM169.21 584.67V584.67 590.11H168.76V584.67ZM169.21 592.83V592.83 598.28H168.76V592.83ZM169.21 601V601 606.44H168.76V601ZM169.21 609.16V609.16 614.6H168.76V609.16ZM169.21 617.32V617.32 622.77H168.76V617.32ZM169.21 625.49V625.49 630.93H168.76V625.49ZM169.21 633.65V633.65 639.09H168.76V633.65ZM169.21 641.81V641.81 647.26H168.76V641.81ZM169.21 649.98V649.98 655.42H168.76V649.98ZM169.21 658.14V658.14 663.58H168.76V658.14ZM169.21 666.31V666.31 671.75H168.76V666.31ZM169.21 674.47V674.47 679.91H168.76V674.47ZM169.21 682.63V682.63 688.08H168.76V682.63ZM169.21 690.8V690.8 696.24H168.76V690.8ZM169.21 698.96V698.96 704.4H168.76V698.96ZM169.21 707.12V707.12 712.57H168.76V707.12ZM169.21 715.29V715.29 720.73H168.76V715.29ZM169.21 723.45V723.45 728.89H168.76V723.45ZM169.21 731.61V731.61 737.06H168.76V731.61ZM169.21 739.78V739.78 745.22H168.76V739.78ZM169.21 747.94V747.94 753.38H168.76V747.94ZM169.21 756.11V756.11 761.55H168.76V756.11ZM169.21 764.27V764.27 769.71H168.76V764.27ZM169.21 772.43V772.43 777.87H168.76V772.43ZM169.21 780.6V780.6 786.04H168.76V780.6ZM169.21 788.76V788.76 794.2H168.76V788.76ZM169.21 796.92V796.92 802.37H168.76V796.92ZM169.21 805.09V805.09 810.53H168.76V805.09ZM169.21 813.25V813.25 818.69H168.76V813.25ZM169.21 821.41V821.41 826.86H168.76V821.41ZM169.21 829.58V829.58 835.02H168.76V829.58ZM169.21 837.74V837.74 843.18H168.76V837.74ZM169.21 845.9V845.9 851.35H168.76V845.9ZM169.21 854.07V854.07 859.51H168.76V854.07ZM169.21 862.23V862.23 867.67H168.76V862.23ZM169.21 870.4V870.4 875.84H168.76V870.4ZM169.21 878.56V878.56 884H168.76V878.56ZM169.21 886.72V886.72 892.16H168.76V886.72ZM169.21 894.89V894.89 900.33H168.76V894.89ZM169.21 903.05V903.05 908.49H168.76V903.05ZM169.21 911.21V911.21 916.66H168.76V911.21ZM169.21 919.38V919.38 924.82H168.76V919.38ZM169.21 927.54V927.54 932.98H168.76V927.54ZM169.21 935.7V935.7 941.15H168.76V935.7ZM169.21 943.87V943.87 949.31H168.76V943.87ZM169.21 952.03V952.03 957.47H168.76V952.03ZM169.21 960.19V960.19 965.64H168.76V960.19ZM169.21 968.36V968.36 973.8H168.76V968.36ZM169.21 976.52V976.52 981.96H168.76V976.52ZM169.21 984.69V984.69 990.13H168.76V984.69ZM169.21 992.85V992.85 998.29H168.76V992.85ZM169.21 1001.01V1001.01 1006.45H168.76V1001.01ZM169.21 1009.18V1009.18 1014.62H168.76V1009.18ZM169.21 1017.34V1017.34 1022.78H168.76V1017.34ZM169.21 1025.5V1025.5 1030.95H168.76V1025.5ZM169.21 1033.67V1033.67 1039.11H168.76V1033.67ZM169.21 1041.83V1041.83 1047.27H168.76V1041.83ZM169.21 94.86V94.86 100.3H168.76V94.86Z"/>
<path transform="matrix(.75,0,0,.75,0,0)" d="M144.04 81.25H193.93V94.86H144.04V81.25Z" fill="#ffffcc"/>
<path transform="matrix(.75,0,0,.75,108.03,60.600004)" d="M0 0V0H49.89 50.34V.45 14.06 14.51H49.89 0-.45V14.06 .45 0H0ZM0 .9V.45H.45V14.06H0V13.6H49.89V14.06H49.43V.45H49.89V.9H0Z"/>
</g>
<text xml:space="preserve" transform="matrix(.75 0 0 .75 0 0)" font-size="5.44021" font-family="F2"><tspan y="88.48" x="152.48 156.17934 157.26738 160.15068 163.5236 167.22295 170.10625 174.2408 177.1241 181.42186">BigTwoGame</tspan></text>
<g clip-path="url(#clip_4)">
<path transform="matrix(.75,0,0,.75,0,0)" d="M248.58 103.02V103.02 108.46H248.13V103.02ZM248.58 111.18V111.18 116.62H248.13V111.18ZM248.58 119.35V119.35 124.79H248.13V119.35ZM248.58 127.51V127.51 132.95H248.13V127.51ZM248.58 135.67V135.67 141.12H248.13V135.67ZM248.58 143.84V143.84 149.28H248.13V143.84ZM248.58 152V152 157.44H248.13V152ZM248.58 160.16V160.16 165.61H248.13V160.16ZM248.58 168.33V168.33 173.77H248.13V168.33ZM248.58 176.49V176.49 181.93H248.13V176.49ZM248.58 184.65V184.65 190.1H248.13V184.65ZM248.58 192.82V192.82 198.26H248.13V192.82ZM248.58 200.98V200.98 206.42H248.13V200.98ZM248.58 209.15V209.15 214.59H248.13V209.15ZM248.58 217.31V217.31 222.75H248.13V217.31ZM248.58 225.47V225.47 230.92H248.13V225.47ZM248.58 233.64V233.64 239.08H248.13V233.64ZM248.58 241.8V241.8 247.24H248.13V241.8ZM248.58 249.96V249.96 255.41H248.13V249.96ZM248.58 258.13V258.13 263.57H248.13V258.13ZM248.58 266.29V266.29 271.73H248.13V266.29ZM248.58 274.45V274.45 279.9H248.13V274.45ZM248.58 282.62V282.62 288.06H248.13V282.62ZM248.58 290.78V290.78 296.22H248.13V290.78ZM248.58 298.94V298.94 304.39H248.13V298.94ZM248.58 307.11V307.11 312.55H248.13V307.11ZM248.58 315.27V315.27 320.71H248.13V315.27ZM248.58 323.44V323.44 328.88H248.13V323.44ZM248.58 331.6V331.6 337.04H248.13V331.6ZM248.58 339.76V339.76 345.21H248.13V339.76ZM248.58 347.93V347.93 353.37H248.13V347.93ZM248.58 356.09V356.09 361.53H248.13V356.09ZM248.58 364.25V364.25 369.7H248.13V364.25ZM248.58 372.42V372.42 377.86H248.13V372.42ZM248.58 380.58V380.58 386.02H248.13V380.58ZM248.58 388.74V388.74 394.19H248.13V388.74ZM248.58 396.91V396.91 402.35H248.13V396.91ZM248.58 405.07V405.07 410.51H248.13V405.07ZM248.58 413.23V413.23 418.68H248.13V413.23ZM248.58 421.4V421.4 426.84H248.13V421.4ZM248.58 429.56V429.56 435H248.13V429.56ZM248.58 437.73V437.73 443.17H248.13V437.73ZM248.58 445.89V445.89 451.33H248.13V445.89ZM248.58 454.05V454.05 459.5H248.13V454.05ZM248.58 462.22V462.22 467.66H248.13V462.22ZM248.58 470.38V470.38 475.82H248.13V470.38ZM248.58 478.54V478.54 483.99H248.13V478.54ZM248.58 486.71V486.71 492.15H248.13V486.71ZM248.58 494.87V494.87 500.31H248.13V494.87ZM248.58 503.03V503.03 508.48H248.13V503.03ZM248.58 511.2V511.2 516.64H248.13V511.2ZM248.58 519.36V519.36 524.8H248.13V519.36ZM248.58 527.52V527.52 532.97H248.13V527.52ZM248.58 535.69V535.69 541.13H248.13V535.69ZM248.58 543.85V543.85 549.29H248.13V543.85ZM248.58 552.02V552.02 557.46H248.13V552.02ZM248.58 560.18V560.18 565.62H248.13V560.18ZM248.58 568.34V568.34 573.79H248.13V568.34ZM248.58 576.51V576.51 581.95H248.13V576.51ZM248.58 584.67V584.67 590.11H248.13V584.67ZM248.58 592.83V592.83 598.28H248.13V592.83ZM248.58 601V601 606.44H248.13V601ZM248.58 609.16V609.16 614.6H248.13V609.16ZM248.58 617.32V617.32 622.77H248.13V617.32ZM248.58 625.49V625.49 630.93H248.13V625.49ZM248.58 633.65V633.65 639.09H248.13V633.65ZM248.58 641.81V641.81 647.26H248.13V641.81ZM248.58 649.98V649.98 655.42H248.13V649.98ZM248.58 658.14V658.14 663.58H248.13V658.14ZM248.58 666.31V666.31 671.75H248.13V666.31ZM248.58 674.47V674.47 679.91H248.13V674.47ZM248.58 682.63V682.63 688.08H248.13V682.63ZM248.58 690.8V690.8 696.24H248.13V690.8ZM248.58 698.96V698.96 704.4H248.13V698.96ZM248.58 707.12V707.12 712.57H248.13V707.12ZM248.58 715.29V715.29 720.73H248.13V715.29ZM248.58 723.45V723.45 728.89H248.13V723.45ZM248.58 731.61V731.61 737.06H248.13V731.61ZM248.58 739.78V739.78 745.22H248.13V739.78ZM248.58 747.94V747.94 753.38H248.13V747.94ZM248.58 756.11V756.11 761.55H248.13V756.11ZM248.58 764.27V764.27 769.71H248.13V764.27ZM248.58 772.43V772.43 777.87H248.13V772.43ZM248.58 780.6V780.6 786.04H248.13V780.6ZM248.58 788.76V788.76 794.2H248.13V788.76ZM248.58 796.92V796.92 802.37H248.13V796.92ZM248.58 805.09V805.09 810.53H248.13V805.09ZM248.58 813.25V813.25 818.69H248.13V813.25ZM248.58 821.41V821.41 826.86H248.13V821.41ZM248.58 829.58V829.58 835.02H248.13V829.58ZM248.58 837.74V837.74 843.18H248.13V837.74ZM248.58 845.9V845.9 851.35H248.13V845.9ZM248.58 854.07V854.07 859.51H248.13V854.07ZM248.58 862.23V862.23 867.67H248.13V862.23ZM248.58 870.4V870.4 875.84H248.13V870.4ZM248.58 878.56V878.56 884H248.13V878.56ZM248.58 886.72V886.72 892.16H248.13V886.72ZM248.58 894.89V894.89 900.33H248.13V894.89ZM248.58 903.05V903.05 908.49H248.13V903.05ZM248.58 911.21V911.21 916.66H248.13V911.21ZM248.58 919.38V919.38 924.82H248.13V919.38ZM248.58 927.54V927.54 932.98H248.13V927.54ZM248.58 935.7V935.7 941.15H248.13V935.7ZM248.58 943.87V943.87 949.31H248.13V943.87ZM248.58 952.03V952.03 957.47H248.13V952.03ZM248.58 960.19V960.19 965.64H248.13V960.19ZM248.58 968.36V968.36 973.8H248.13V968.36ZM248.58 976.52V976.52 981.96H248.13V976.52ZM248.58 984.69V984.69 990.13H248.13V984.69ZM248.58 992.85V992.85 998.29H248.13V992.85ZM248.58 1001.01V1001.01 1006.45H248.13V1001.01ZM248.58 1009.18V1009.18 1014.62H248.13V1009.18ZM248.58 1017.34V1017.34 1022.78H248.13V1017.34ZM248.58 1025.5V1025.5 1028.41H248.13V1025.5ZM248.58 94.86V94.86 100.3H248.13V94.86Z"/>
<path transform="matrix(.75,0,0,.75,0,0)" d="M223.41 81.25H273.3V94.86H223.41V81.25Z" fill="#ffffcc"/>
<path transform="matrix(.75,0,0,.75,167.5575,60.600004)" d="M0 0V0H49.89 50.34V.45 14.06 14.51H49.89 0-.45V14.06 .45 0H0ZM0 .9V.45H.45V14.06H0V13.6H49.89V14.06H49.43V.45H49.89V.9H0Z"/>
</g>
<text xml:space="preserve" transform="matrix(.75 0 0 .75 0 0)" font-size="5.44021" font-family="F2"><tspan y="88.96" x="242.08 246.10576 248.93466 251.65477">Deck</tspan></text>
<g clip-path="url(#clip_5)">
<path transform="matrix(.75,0,0,.75,0,0)" d="M339.74 103.02V103.02 108.46H339.29V103.02ZM339.74 111.18V111.18 116.62H339.29V111.18ZM339.74 119.35V119.35 124.79H339.29V119.35ZM339.74 127.51V127.51 132.95H339.29V127.51ZM339.74 135.67V135.67 141.12H339.29V135.67ZM339.74 143.84V143.84 149.28H339.29V143.84ZM339.74 152V152 157.44H339.29V152ZM339.74 160.16V160.16 165.61H339.29V160.16ZM339.74 168.33V168.33 173.77H339.29V168.33ZM339.74 176.49V176.49 181.93H339.29V176.49ZM339.74 184.65V184.65 190.1H339.29V184.65ZM339.74 192.82V192.82 198.26H339.29V192.82ZM339.74 200.98V200.98 206.42H339.29V200.98ZM339.74 209.15V209.15 214.59H339.29V209.15ZM339.74 217.31V217.31 222.75H339.29V217.31ZM339.74 225.47V225.47 230.92H339.29V225.47ZM339.74 233.64V233.64 239.08H339.29V233.64ZM339.74 241.8V241.8 247.24H339.29V241.8ZM339.74 249.96V249.96 255.41H339.29V249.96ZM339.74 258.13V258.13 263.57H339.29V258.13ZM339.74 266.29V266.29 271.73H339.29V266.29ZM339.74 274.45V274.45 279.9H339.29V274.45ZM339.74 282.62V282.62 288.06H339.29V282.62ZM339.74 290.78V290.78 296.22H339.29V290.78ZM339.74 298.94V298.94 304.39H339.29V298.94ZM339.74 307.11V307.11 312.55H339.29V307.11ZM339.74 315.27V315.27 320.71H339.29V315.27ZM339.74 323.44V323.44 328.88H339.29V323.44ZM339.74 331.6V331.6 337.04H339.29V331.6ZM339.74 339.76V339.76 345.21H339.29V339.76ZM339.74 347.93V347.93 353.37H339.29V347.93ZM339.74 356.09V356.09 361.53H339.29V356.09ZM339.74 364.25V364.25 369.7H339.29V364.25ZM339.74 372.42V372.42 377.86H339.29V372.42ZM339.74 380.58V380.58 386.02H339.29V380.58ZM339.74 388.74V388.74 394.19H339.29V388.74ZM339.74 396.91V396.91 402.35H339.29V396.91ZM339.74 405.07V405.07 410.51H339.29V405.07ZM339.74 413.23V413.23 418.68H339.29V413.23ZM339.74 421.4V421.4 426.84H339.29V421.4ZM339.74 429.56V429.56 435H339.29V429.56ZM339.74 437.73V437.73 443.17H339.29V437.73ZM339.74 445.89V445.89 451.33H339.29V445.89ZM339.74 454.05V454.05 459.5H339.29V454.05ZM339.74 462.22V462.22 467.66H339.29V462.22ZM339.74 470.38V470.38 475.82H339.29V470.38ZM339.74 478.54V478.54 483.99H339.29V478.54ZM339.74 486.71V486.71 492.15H339.29V486.71ZM339.74 494.87V494.87 500.31H339.29V494.87ZM339.74 503.03V503.03 508.48H339.29V503.03ZM339.74 511.2V511.2 516.64H339.29V511.2ZM339.74 519.36V519.36 524.8H339.29V519.36ZM339.74 527.52V527.52 532.97H339.29V527.52ZM339.74 535.69V535.69 541.13H339.29V535.69ZM339.74 543.85V543.85 549.29H339.29V543.85ZM339.74 552.02V552.02 557.46H339.29V552.02ZM339.74 560.18V560.18 565.62H339.29V560.18ZM339.74 568.34V568.34 573.79H339.29V568.34ZM339.74 576.51V576.51 581.95H339.29V576.51ZM339.74 584.67V584.67 590.11H339.29V584.67ZM339.74 592.83V592.83 598.28H339.29V592.83ZM339.74 601V601 606.44H339.29V601ZM339.74 609.16V609.16 614.6H339.29V609.16ZM339.74 617.32V617.32 622.77H339.29V617.32ZM339.74 625.49V625.49 630.93H339.29V625.49ZM339.74 633.65V633.65 639.09H339.29V633.65ZM339.74 641.81V641.81 647.26H339.29V641.81ZM339.74 649.98V649.98 655.42H339.29V649.98ZM339.74 658.14V658.14 663.58H339.29V658.14ZM339.74 666.31V666.31 671.75H339.29V666.31ZM339.74 674.47V674.47 679.91H339.29V674.47ZM339.74 682.63V682.63 688.08H339.29V682.63ZM339.74 690.8V690.8 696.24H339.29V690.8ZM339.74 698.96V698.96 704.4H339.29V698.96ZM339.74 707.12V707.12 712.57H339.29V707.12ZM339.74 715.29V715.29 720.73H339.29V715.29ZM339.74 723.45V723.45 728.89H339.29V723.45ZM339.74 731.61V731.61 737.06H339.29V731.61ZM339.74 739.78V739.78 745.22H339.29V739.78ZM339.74 747.94V747.94 753.38H339.29V747.94ZM339.74 756.11V756.11 761.55H339.29V756.11ZM339.74 764.27V764.27 769.71H339.29V764.27ZM339.74 772.43V772.43 777.87H339.29V772.43ZM339.74 780.6V780.6 786.04H339.29V780.6ZM339.74 788.76V788.76 794.2H339.29V788.76ZM339.74 796.92V796.92 802.37H339.29V796.92ZM339.74 805.09V805.09 810.53H339.29V805.09ZM339.74 813.25V813.25 818.69H339.29V813.25ZM339.74 821.41V821.41 826.86H339.29V821.41ZM339.74 829.58V829.58 835.02H339.29V829.58ZM339.74 837.74V837.74 843.18H339.29V837.74ZM339.74 845.9V845.9 851.35H339.29V845.9ZM339.74 854.07V854.07 859.51H339.29V854.07ZM339.74 862.23V862.23 867.67H339.29V862.23ZM339.74 870.4V870.4 875.84H339.29V870.4ZM339.74 878.56V878.56 884H339.29V878.56ZM339.74 886.72V886.72 892.16H339.29V886.72ZM339.74 894.89V894.89 900.33H339.29V894.89ZM339.74 903.05V903.05 908.49H339.29V903.05ZM339.74 911.21V911.21 916.66H339.29V911.21ZM339.74 919.38V919.38 924.82H339.29V919.38ZM339.74 927.54V927.54 932.98H339.29V927.54ZM339.74 935.7V935.7 941.15H339.29V935.7ZM339.74 943.87V943.87 949.31H339.29V943.87ZM339.74 952.03V952.03 957.47H339.29V952.03ZM339.74 960.19V960.19 965.64H339.29V960.19ZM339.74 968.36V968.36 973.8H339.29V968.36ZM339.74 976.52V976.52 981.96H339.29V976.52ZM339.74 984.69V984.69 990.13H339.29V984.69ZM339.74 992.85V992.85 998.29H339.29V992.85ZM339.74 1001.01V1001.01 1006.45H339.29V1001.01ZM339.74 1009.18V1009.18 1014.62H339.29V1009.18ZM339.74 1017.34V1017.34 1022.78H339.29V1017.34ZM339.74 1025.5V1025.5 1028.41H339.29V1025.5ZM339.74 94.86V94.86 100.3H339.29V94.86Z"/>
<path transform="matrix(.75,0,0,.75,0,0)" d="M314.57 81.25H364.46V94.86H314.57V81.25Z" fill="#ffffcc"/>
<path transform="matrix(.75,0,0,.75,235.9275,60.600004)" d="M0 0V0H49.89 50.34V.45 14.06 14.51H49.89 0-.45V14.06 .45 0H0ZM0 .9V.45H.45V14.06H0V13.6H49.89V14.06H49.43V.45H49.89V.9H0Z"/>
</g>
<text xml:space="preserve" transform="matrix(.75 0 0 .75 0 0)" font-size="5.44021" font-family="F2"><tspan y="88.96" x="333.6 337.62577 340.45466 342.26628">Card</tspan></text>
<g clip-path="url(#clip_6)">
<path transform="matrix(.75,0,0,.75,0,0)" d="M430.9 103.02V103.02 108.46H430.45V103.02ZM430.9 111.18V111.18 116.62H430.45V111.18ZM430.9 119.35V119.35 124.79H430.45V119.35ZM430.9 127.51V127.51 132.95H430.45V127.51ZM430.9 135.67V135.67 141.12H430.45V135.67ZM430.9 143.84V143.84 149.28H430.45V143.84ZM430.9 152V152 157.44H430.45V152ZM430.9 160.16V160.16 165.61H430.45V160.16ZM430.9 168.33V168.33 173.77H430.45V168.33ZM430.9 176.49V176.49 181.93H430.45V176.49ZM430.9 184.65V184.65 190.1H430.45V184.65ZM430.9 192.82V192.82 198.26H430.45V192.82ZM430.9 200.98V200.98 206.42H430.45V200.98ZM430.9 209.15V209.15 214.59H430.45V209.15ZM430.9 217.31V217.31 222.75H430.45V217.31ZM430.9 225.47V225.47 230.92H430.45V225.47ZM430.9 233.64V233.64 239.08H430.45V233.64ZM430.9 241.8V241.8 247.24H430.45V241.8ZM430.9 249.96V249.96 255.41H430.45V249.96ZM430.9 258.13V258.13 263.57H430.45V258.13ZM430.9 266.29V266.29 271.73H430.45V266.29ZM430.9 274.45V274.45 279.9H430.45V274.45ZM430.9 282.62V282.62 288.06H430.45V282.62ZM430.9 290.78V290.78 296.22H430.45V290.78ZM430.9 298.94V298.94 304.39H430.45V298.94ZM430.9 307.11V307.11 312.55H430.45V307.11ZM430.9 315.27V315.27 320.71H430.45V315.27ZM430.9 323.44V323.44 328.88H430.45V323.44ZM430.9 331.6V331.6 337.04H430.45V331.6ZM430.9 339.76V339.76 345.21H430.45V339.76ZM430.9 347.93V347.93 353.37H430.45V347.93ZM430.9 356.09V356.09 361.53H430.45V356.09ZM430.9 364.25V364.25 369.7H430.45V364.25ZM430.9 372.42V372.42 377.86H430.45V372.42ZM430.9 380.58V380.58 386.02H430.45V380.58ZM430.9 388.74V388.74 394.19H430.45V388.74ZM430.9 396.91V396.91 402.35H430.45V396.91ZM430.9 405.07V405.07 410.51H430.45V405.07ZM430.9 413.23V413.23 418.68H430.45V413.23ZM430.9 421.4V421.4 426.84H430.45V421.4ZM430.9 429.56V429.56 435H430.45V429.56ZM430.9 437.73V437.73 443.17H430.45V437.73ZM430.9 445.89V445.89 451.33H430.45V445.89ZM430.9 454.05V454.05 459.5H430.45V454.05ZM430.9 462.22V462.22 467.66H430.45V462.22ZM430.9 470.38V470.38 475.82H430.45V470.38ZM430.9 478.54V478.54 483.99H430.45V478.54ZM430.9 486.71V486.71 492.15H430.45V486.71ZM430.9 494.87V494.87 500.31H430.45V494.87ZM430.9 503.03V503.03 508.48H430.45V503.03ZM430.9 511.2V511.2 516.64H430.45V511.2ZM430.9 519.36V519.36 524.8H430.45V519.36ZM430.9 527.52V527.52 532.97H430.45V527.52ZM430.9 535.69V535.69 541.13H430.45V535.69ZM430.9 543.85V543.85 549.29H430.45V543.85ZM430.9 552.02V552.02 557.46H430.45V552.02ZM430.9 560.18V560.18 565.62H430.45V560.18ZM430.9 568.34V568.34 573.79H430.45V568.34ZM430.9 576.51V576.51 581.95H430.45V576.51ZM430.9 584.67V584.67 590.11H430.45V584.67ZM430.9 592.83V592.83 598.28H430.45V592.83ZM430.9 601V601 606.44H430.45V601ZM430.9 609.16V609.16 614.6H430.45V609.16ZM430.9 617.32V617.32 622.77H430.45V617.32ZM430.9 625.49V625.49 630.93H430.45V625.49ZM430.9 633.65V633.65 639.09H430.45V633.65ZM430.9 641.81V641.81 647.26H430.45V641.81ZM430.9 649.98V649.98 655.42H430.45V649.98ZM430.9 658.14V658.14 663.58H430.45V658.14ZM430.9 666.31V666.31 671.75H430.45V666.31ZM430.9 674.47V674.47 679.91H430.45V674.47ZM430.9 682.63V682.63 688.08H430.45V682.63ZM430.9 690.8V690.8 696.24H430.45V690.8ZM430.9 698.96V698.96 704.4H430.45V698.96ZM430.9 707.12V707.12 712.57H430.45V707.12ZM430.9 715.29V715.29 720.73H430.45V715.29ZM430.9 723.45V723.45 728.89H430.45V723.45ZM430.9 731.61V731.61 737.06H430.45V731.61ZM430.9 739.78V739.78 745.22H430.45V739.78ZM430.9 747.94V747.94 753.38H430.45V747.94ZM430.9 756.11V756.11 761.55H430.45V756.11ZM430.9 764.27V764.27 769.71H430.45V764.27ZM430.9 772.43V772.43 777.87H430.45V772.43ZM430.9 780.6V780.6 786.04H430.45V780.6ZM430.9 788.76V788.76 794.2H430.45V788.76ZM430.9 796.92V796.92 802.37H430.45V796.92ZM430.9 805.09V805.09 810.53H430.45V805.09ZM430.9 813.25V813.25 818.69H430.45V813.25ZM430.9 821.41V821.41 826.86H430.45V821.41ZM430.9 829.58V829.58 835.02H430.45V829.58ZM430.9 837.74V837.74 843.18H430.45V837.74ZM430.9 845.9V845.9 851.35H430.45V845.9ZM430.9 854.07V854.07 859.51H430.45V854.07ZM430.9 862.23V862.23 867.67H430.45V862.23ZM430.9 870.4V870.4 875.84H430.45V870.4ZM430.9 878.56V878.56 884H430.45V878.56ZM430.9 886.72V886.72 892.16H430.45V886.72ZM430.9 894.89V894.89 900.33H430.45V894.89ZM430.9 903.05V903.05 908.49H430.45V903.05ZM430.9 911.21V911.21 916.66H430.45V911.21ZM430.9 919.38V919.38 924.82H430.45V919.38ZM430.9 927.54V927.54 932.98H430.45V927.54ZM430.9 935.7V935.7 941.15H430.45V935.7ZM430.9 943.87V943.87 949.31H430.45V943.87ZM430.9 952.03V952.03 957.47H430.45V952.03ZM430.9 960.19V960.19 965.64H430.45V960.19ZM430.9 968.36V968.36 973.8H430.45V968.36ZM430.9 976.52V976.52 981.96H430.45V976.52ZM430.9 984.69V984.69 990.13H430.45V984.69ZM430.9 992.85V992.85 998.29H430.45V992.85ZM430.9 1001.01V1001.01 1006.45H430.45V1001.01ZM430.9 1009.18V1009.18 1014.62H430.45V1009.18ZM430.9 1017.34V1017.34 1022.78H430.45V1017.34ZM430.9 1025.5V1025.5 1028.41H430.45V1025.5ZM430.9 94.86V94.86 100.3H430.45V94.86Z"/>
<path transform="matrix(.75,0,0,.75,0,0)" d="M405.73 81.25H455.62V94.86H405.73V81.25Z" fill="#ffffcc"/>
<path transform="matrix(.75,0,0,.75,304.29753,60.600004)" d="M0 0V0H49.89 50.34V.45 14.06 14.51H49.89 0-.45V14.06 .45 0H0ZM0 .9V.45H.45V14.06H0V13.6H49.89V14.06H49.43V.45H49.89V.9H0Z"/>
</g>
<text xml:space="preserve" transform="matrix(.75 0 0 .75 0 0)" font-size="5.44021" font-family="F2"><tspan y="88.96" x="422.88 426.57936 427.6674 430.5507 433.27079 436.15409">Player</tspan></text>
<g clip-path="url(#clip_7)">
<path transform="matrix(.75,0,0,.75,0,0)" d="M523.42 103.02V103.02 108.46H522.97V103.02ZM523.42 111.18V111.18 116.62H522.97V111.18ZM523.42 119.35V119.35 124.79H522.97V119.35ZM523.42 127.51V127.51 132.95H522.97V127.51ZM523.42 135.67V135.67 141.12H522.97V135.67ZM523.42 143.84V143.84 149.28H522.97V143.84ZM523.42 152V152 157.44H522.97V152ZM523.42 160.16V160.16 165.61H522.97V160.16ZM523.42 168.33V168.33 173.77H522.97V168.33ZM523.42 176.49V176.49 181.93H522.97V176.49ZM523.42 184.65V184.65 190.1H522.97V184.65ZM523.42 192.82V192.82 198.26H522.97V192.82ZM523.42 200.98V200.98 206.42H522.97V200.98ZM523.42 209.15V209.15 214.59H522.97V209.15ZM523.42 217.31V217.31 222.75H522.97V217.31ZM523.42 225.47V225.47 230.92H522.97V225.47ZM523.42 233.64V233.64 239.08H522.97V233.64ZM523.42 241.8V241.8 247.24H522.97V241.8ZM523.42 249.96V249.96 255.41H522.97V249.96ZM523.42 258.13V258.13 263.57H522.97V258.13ZM523.42 266.29V266.29 271.73H522.97V266.29ZM523.42 274.45V274.45 279.9H522.97V274.45ZM523.42 282.62V282.62 288.06H522.97V282.62ZM523.42 290.78V290.78 296.22H522.97V290.78ZM523.42 298.94V298.94 304.39H522.97V298.94ZM523.42 307.11V307.11 312.55H522.97V307.11ZM523.42 315.27V315.27 320.71H522.97V315.27ZM523.42 323.44V323.44 328.88H522.97V323.44ZM523.42 331.6V331.6 337.04H522.97V331.6ZM523.42 339.76V339.76 345.21H522.97V339.76ZM523.42 347.93V347.93 353.37H522.97V347.93ZM523.42 356.09V356.09 361.53H522.97V356.09ZM523.42 364.25V364.25 369.7H522.97V364.25ZM523.42 372.42V372.42 377.86H522.97V372.42ZM523.42 380.58V380.58 386.02H522.97V380.58ZM523.42 388.74V388.74 394.19H522.97V388.74ZM523.42 396.91V396.91 402.35H522.97V396.91ZM523.42 405.07V405.07 410.51H522.97V405.07ZM523.42 413.23V413.23 418.68H522.97V413.23ZM523.42 421.4V421.4 426.84H522.97V421.4ZM523.42 429.56V429.56 435H522.97V429.56ZM523.42 437.73V437.73 443.17H522.97V437.73ZM523.42 445.89V445.89 451.33H522.97V445.89ZM523.42 454.05V454.05 459.5H522.97V454.05ZM523.42 462.22V462.22 467.66H522.97V462.22ZM523.42 470.38V470.38 475.82H522.97V470.38ZM523.42 478.54V478.54 483.99H522.97V478.54ZM523.42 486.71V486.71 492.15H522.97V486.71ZM523.42 494.87V494.87 500.31H522.97V494.87ZM523.42 503.03V503.03 508.48H522.97V503.03ZM523.42 511.2V511.2 516.64H522.97V511.2ZM523.42 519.36V519.36 524.8H522.97V519.36ZM523.42 527.52V527.52 532.97H522.97V527.52ZM523.42 535.69V535.69 541.13H522.97V535.69ZM523.42 543.85V543.85 549.29H522.97V543.85ZM523.42 552.02V552.02 557.46H522.97V552.02ZM523.42 560.18V560.18 565.62H522.97V560.18ZM523.42 568.34V568.34 573.79H522.97V568.34ZM523.42 576.51V576.51 581.95H522.97V576.51ZM523.42 584.67V584.67 590.11H522.97V584.67ZM523.42 592.83V592.83 598.28H522.97V592.83ZM523.42 601V601 606.44H522.97V601ZM523.42 609.16V609.16 614.6H522.97V609.16ZM523.42 617.32V617.32 622.77H522.97V617.32ZM523.42 625.49V625.49 630.93H522.97V625.49ZM523.42 633.65V633.65 639.09H522.97V633.65ZM523.42 641.81V641.81 647.26H522.97V641.81ZM523.42 649.98V649.98 655.42H522.97V649.98ZM523.42 658.14V658.14 663.58H522.97V658.14ZM523.42 666.31V666.31 671.75H522.97V666.31ZM523.42 674.47V674.47 679.91H522.97V674.47ZM523.42 682.63V682.63 688.08H522.97V682.63ZM523.42 690.8V690.8 696.24H522.97V690.8ZM523.42 698.96V698.96 704.4H522.97V698.96ZM523.42 707.12V707.12 712.57H522.97V707.12ZM523.42 715.29V715.29 720.73H522.97V715.29ZM523.42 723.45V723.45 728.89H522.97V723.45ZM523.42 731.61V731.61 737.06H522.97V731.61ZM523.42 739.78V739.78 745.22H522.97V739.78ZM523.42 747.94V747.94 753.38H522.97V747.94ZM523.42 756.11V756.11 761.55H522.97V756.11ZM523.42 764.27V764.27 769.71H522.97V764.27ZM523.42 772.43V772.43 777.87H522.97V772.43ZM523.42 780.6V780.6 786.04H522.97V780.6ZM523.42 788.76V788.76 794.2H522.97V788.76ZM523.42 796.92V796.92 802.37H522.97V796.92ZM523.42 805.09V805.09 810.53H522.97V805.09ZM523.42 813.25V813.25 818.69H522.97V813.25ZM523.42 821.41V821.41 826.86H522.97V821.41ZM523.42 829.58V829.58 835.02H522.97V829.58ZM523.42 837.74V837.74 843.18H522.97V837.74ZM523.42 845.9V845.9 851.35H522.97V845.9ZM523.42 854.07V854.07 859.51H522.97V854.07ZM523.42 862.23V862.23 867.67H522.97V862.23ZM523.42 870.4V870.4 875.84H522.97V870.4ZM523.42 878.56V878.56 884H522.97V878.56ZM523.42 886.72V886.72 892.16H522.97V886.72ZM523.42 894.89V894.89 900.33H522.97V894.89ZM523.42 903.05V903.05 908.49H522.97V903.05ZM523.42 911.21V911.21 916.66H522.97V911.21ZM523.42 919.38V919.38 924.82H522.97V919.38ZM523.42 927.54V927.54 932.98H522.97V927.54ZM523.42 935.7V935.7 941.15H522.97V935.7ZM523.42 943.87V943.87 949.31H522.97V943.87ZM523.42 952.03V952.03 957.47H522.97V952.03ZM523.42 960.19V960.19 965.64H522.97V960.19ZM523.42 968.36V968.36 973.8H522.97V968.36ZM523.42 976.52V976.52 981.96H522.97V976.52ZM523.42 984.69V984.69 990.13H522.97V984.69ZM523.42 992.85V992.85 998.29H522.97V992.85ZM523.42 1001.01V1001.01 1006.45H522.97V1001.01ZM523.42 1009.18V1009.18 1014.62H522.97V1009.18ZM523.42 1017.34V1017.34 1022.78H522.97V1017.34ZM523.42 1025.5V1025.5 1028.41H522.97V1025.5ZM523.42 94.86V94.86 100.3H522.97V94.86Z"/>
<path transform="matrix(.75,0,0,.75,0,0)" d="M497.11 81.25H549.27V94.86H497.11V81.25Z" fill="#ffffcc"/>
<path transform="matrix(.75,0,0,.75,372.8325,60.600004)" d="M0 0V0H52.16 52.61V.45 14.06 14.51H52.16 0-.45V14.06 .45 0H0ZM0 .9V.45H.46V14.06H0V13.6H52.16V14.06H51.71V.45H52.16V.9H0Z"/>
</g>
<text xml:space="preserve" transform="matrix(.75 0 0 .75 0 0)" font-size="5.44021" font-family="F2"><tspan y="88.96" x="501.6 505.62577 508.45466 510.26628 513.09518 516.4681 519.1882 522.07156 524.9549 528.98068 531.864 534.85617 535.99856 538.8819 541.76528">CardTypeHanlder</tspan></text>
<g clip-path="url(#clip_8)">
<path transform="matrix(.75,0,0,.75,0,0)" d="M89.84 103.02V103.02 108.46H89.39V103.02ZM89.84 111.18V111.18 116.62H89.39V111.18ZM89.84 119.35V119.35 124.79H89.39V119.35ZM89.84 127.51V127.51 132.95H89.39V127.51ZM89.84 135.67V135.67 141.12H89.39V135.67ZM89.84 143.84V143.84 149.28H89.39V143.84ZM89.84 152V152 157.44H89.39V152ZM89.84 160.16V160.16 165.61H89.39V160.16ZM89.84 168.33V168.33 173.77H89.39V168.33ZM89.84 176.49V176.49 181.93H89.39V176.49ZM89.84 184.65V184.65 190.1H89.39V184.65ZM89.84 192.82V192.82 198.26H89.39V192.82ZM89.84 200.98V200.98 206.42H89.39V200.98ZM89.84 209.15V209.15 214.59H89.39V209.15ZM89.84 217.31V217.31 222.75H89.39V217.31ZM89.84 225.47V225.47 230.92H89.39V225.47ZM89.84 233.64V233.64 239.08H89.39V233.64ZM89.84 241.8V241.8 247.24H89.39V241.8ZM89.84 249.96V249.96 255.41H89.39V249.96ZM89.84 258.13V258.13 263.57H89.39V258.13ZM89.84 266.29V266.29 271.73H89.39V266.29ZM89.84 274.45V274.45 279.9H89.39V274.45ZM89.84 282.62V282.62 288.06H89.39V282.62ZM89.84 290.78V290.78 296.22H89.39V290.78ZM89.84 298.94V298.94 304.39H89.39V298.94ZM89.84 307.11V307.11 312.55H89.39V307.11ZM89.84 315.27V315.27 320.71H89.39V315.27ZM89.84 323.44V323.44 328.88H89.39V323.44ZM89.84 331.6V331.6 337.04H89.39V331.6ZM89.84 339.76V339.76 345.21H89.39V339.76ZM89.84 347.93V347.93 353.37H89.39V347.93ZM89.84 356.09V356.09 361.53H89.39V356.09ZM89.84 364.25V364.25 369.7H89.39V364.25ZM89.84 372.42V372.42 377.86H89.39V372.42ZM89.84 380.58V380.58 386.02H89.39V380.58ZM89.84 388.74V388.74 394.19H89.39V388.74ZM89.84 396.91V396.91 402.35H89.39V396.91ZM89.84 405.07V405.07 410.51H89.39V405.07ZM89.84 413.23V413.23 418.68H89.39V413.23ZM89.84 421.4V421.4 426.84H89.39V421.4ZM89.84 429.56V429.56 435H89.39V429.56ZM89.84 437.73V437.73 443.17H89.39V437.73ZM89.84 445.89V445.89 451.33H89.39V445.89ZM89.84 454.05V454.05 459.5H89.39V454.05ZM89.84 462.22V462.22 467.66H89.39V462.22ZM89.84 470.38V470.38 475.82H89.39V470.38ZM89.84 478.54V478.54 483.99H89.39V478.54ZM89.84 486.71V486.71 492.15H89.39V486.71ZM89.84 494.87V494.87 500.31H89.39V494.87ZM89.84 503.03V503.03 508.48H89.39V503.03ZM89.84 511.2V511.2 516.64H89.39V511.2ZM89.84 519.36V519.36 524.8H89.39V519.36ZM89.84 527.52V527.52 532.97H89.39V527.52ZM89.84 535.69V535.69 541.13H89.39V535.69ZM89.84 543.85V543.85 549.29H89.39V543.85ZM89.84 552.02V552.02 557.46H89.39V552.02ZM89.84 560.18V560.18 565.62H89.39V560.18ZM89.84 568.34V568.34 573.79H89.39V568.34ZM89.84 576.51V576.51 581.95H89.39V576.51ZM89.84 584.67V584.67 590.11H89.39V584.67ZM89.84 592.83V592.83 598.28H89.39V592.83ZM89.84 601V601 606.44H89.39V601ZM89.84 609.16V609.16 614.6H89.39V609.16ZM89.84 617.32V617.32 622.77H89.39V617.32ZM89.84 625.49V625.49 630.93H89.39V625.49ZM89.84 633.65V633.65 639.09H89.39V633.65ZM89.84 641.81V641.81 647.26H89.39V641.81ZM89.84 649.98V649.98 655.42H89.39V649.98ZM89.84 658.14V658.14 663.58H89.39V658.14ZM89.84 666.31V666.31 671.75H89.39V666.31ZM89.84 674.47V674.47 679.91H89.39V674.47ZM89.84 682.63V682.63 688.08H89.39V682.63ZM89.84 690.8V690.8 696.24H89.39V690.8ZM89.84 698.96V698.96 704.4H89.39V698.96ZM89.84 707.12V707.12 712.57H89.39V707.12ZM89.84 715.29V715.29 720.73H89.39V715.29ZM89.84 723.45V723.45 728.89H89.39V723.45ZM89.84 731.61V731.61 737.06H89.39V731.61ZM89.84 739.78V739.78 745.22H89.39V739.78ZM89.84 747.94V747.94 753.38H89.39V747.94ZM89.84 756.11V756.11 761.55H89.39V756.11ZM89.84 764.27V764.27 769.71H89.39V764.27ZM89.84 772.43V772.43 777.87H89.39V772.43ZM89.84 780.6V780.6 786.04H89.39V780.6ZM89.84 788.76V788.76 794.2H89.39V788.76ZM89.84 796.92V796.92 802.37H89.39V796.92ZM89.84 805.09V805.09 810.53H89.39V805.09ZM89.84 813.25V813.25 818.69H89.39V813.25ZM89.84 821.41V821.41 826.86H89.39V821.41ZM89.84 829.58V829.58 835.02H89.39V829.58ZM89.84 837.74V837.74 843.18H89.39V837.74ZM89.84 845.9V845.9 851.35H89.39V845.9ZM89.84 854.07V854.07 859.51H89.39V854.07ZM89.84 862.23V862.23 867.67H89.39V862.23ZM89.84 870.4V870.4 875.84H89.39V870.4ZM89.84 878.56V878.56 884H89.39V878.56ZM89.84 886.72V886.72 892.16H89.39V886.72ZM89.84 894.89V894.89 900.33H89.39V894.89ZM89.84 903.05V903.05 908.49H89.39V903.05ZM89.84 911.21V911.21 916.66H89.39V911.21ZM89.84 919.38V919.38 924.82H89.39V919.38ZM89.84 927.54V927.54 932.98H89.39V927.54ZM89.84 935.7V935.7 941.15H89.39V935.7ZM89.84 943.87V943.87 949.31H89.39V943.87ZM89.84 952.03V952.03 957.47H89.39V952.03ZM89.84 960.19V960.19 965.64H89.39V960.19ZM89.84 968.36V968.36 973.8H89.39V968.36ZM89.84 976.52V976.52 981.96H89.39V976.52ZM89.84 984.69V984.69 990.13H89.39V984.69ZM89.84 992.85V992.85 998.29H89.39V992.85ZM89.84 1001.01V1001.01 1006.45H89.39V1001.01ZM89.84 1009.18V1009.18 1014.62H89.39V1009.18ZM89.84 1017.34V1017.34 1022.78H89.39V1017.34ZM89.84 1025.5V1025.5 1030.95H89.39V1025.5ZM89.84 1033.67V1033.67 1039.11H89.39V1033.67ZM89.84 1041.83V1041.83 1047.27H89.39V1041.83ZM89.84 1049.99V1049.99 1055.44H89.39V1049.99ZM89.84 1058.16V1058.16 1058.34H89.39V1058.16ZM89.84 94.86V94.86 100.3H89.39V94.86Z"/>
<path transform="matrix(.75,0,0,.75,0,0)" d="M64.67 81.25H114.56V94.86H64.67V81.25Z" fill="#ffffcc"/>
<path transform="matrix(.75,0,0,.75,48.5025,60.600004)" d="M0 0V0H49.89 50.34V.45 14.06 14.51H49.89 0-.45V14.06 .45 0H0ZM0 .9V.45H.45V14.06H0V13.6H49.89V14.06H49.43V.45H49.89V.9H0Z"/>
</g>
<text xml:space="preserve" transform="matrix(.75 0 0 .75 0 0)" font-size="5.44021" font-family="F2"><tspan y="88.48" x="83.68 88.30418 91.187488 92.329929">Main</tspan></text>
<g clip-path="url(#clip_9)">
<path transform="matrix(.75,0,0,.75,0,0)" d="M428.4 124.75H432.94V136.08H428.4V124.75Z" fill="#ffffff"/>
<path transform="matrix(.75,0,0,.75,321.3,93.39)" d="M0 0V0H4.54 4.77V.23 11.56 11.79H4.54 0-.22V11.56 .23 0H0ZM0 .45V.23H.23V11.56H0V11.34H4.54V11.56H4.31V.23H4.54V.45H0Z"/>
<path transform="matrix(.75,0,0,.75,0,0)" d="M87.35 124.75H91.88V145.15H87.35V124.75Z" fill="#ffffff"/>
<path transform="matrix(.75,0,0,.75,65.5125,93.39)" d="M0 0V0H4.53 4.76V.23 20.63 20.86H4.53 0-.23V20.63 .23 0H0ZM0 .45V.23H.23V20.63H0V20.41H4.53V20.63H4.31V.23H4.53V.45H0Z"/>
</g>
<text xml:space="preserve" transform="matrix(.75 0 0 .75 0 0)" font-size="5.44021" font-family="F2"><tspan y="123.2" x="241.28 244.30558 245.77443 247.18889 251.21465 254.09795 257.7429 259.21174 262.8403 263.98277 266.86607 269.58616 272.46946 274.28108 276.02195">1: New Player()</tspan></text>
<g clip-path="url(#clip_10)">
<path transform="matrix(.75,0,0,.75,68.88,93.39)" d="M0 0V0H336.61 336.84V.45H336.61 0-.23V0Z"/>
<path transform="matrix(.75,0,0,.75,0,0)" d="M428.4 124.79 423.42 121.61V127.51Z" fill-rule="evenodd"/>
<path transform="matrix(.75,0,0,.75,321.21,93.735)" d="M0 0V0L-4.99-3.17-4.86-3.37H-4.64V2.53H-4.86L-4.97 2.33 .02-.39 .12-.19 0 0ZM.25-.38 .57-.18 .23 .01-4.76 2.73-5.09 2.91V2.53-3.37-3.78L-4.74-3.56 .25-.38Z"/>
<path transform="matrix(.75,0,0,.75,316.2375,102.2325)" d="M0 0V0H-4.54V-.45H0ZM-6.81 0V0H-11.34V-.45H-6.81ZM-13.61 0V0H-18.14V-.45H-13.61ZM-20.41 0V0H-24.95V-.45H-20.41ZM-27.22 0V0H-31.75V-.45H-27.22ZM-34.02 0V0H-38.55V-.45H-34.02ZM-40.82 0V0H-45.36V-.45H-40.82ZM-47.62 0V0H-52.16V-.45H-47.62ZM-54.43 0V0H-58.96V-.45H-54.43ZM-61.23 0V0H-65.77V-.45H-61.23ZM-68.03 0V0H-72.57V-.45H-68.03ZM-74.84 0V0H-79.37V-.45H-74.84ZM-81.64 0V0H-86.17V-.45H-81.64ZM-88.44 0V0H-92.98V-.45H-88.44ZM-95.25 0V0H-99.78V-.45H-95.25ZM-102.05 0V0H-106.58V-.45H-102.05ZM-108.85 0V0H-113.39V-.45H-108.85ZM-115.65 0V0H-120.19V-.45H-115.65ZM-122.46 0V0H-126.99V-.45H-122.46ZM-129.26 0V0H-133.8V-.45H-129.26ZM-136.06 0V0H-140.6V-.45H-136.06ZM-142.87 0V0H-147.4V-.45H-142.87ZM-149.67 0V0H-154.2V-.45H-149.67ZM-156.47 0V0H-161.01V-.45H-156.47ZM-163.27 0V0H-167.81V-.45H-163.27ZM-170.08 0V0H-174.61V-.45H-170.08ZM-176.88 0V0H-181.42V-.45H-176.88ZM-183.68 0V0H-188.22V-.45H-183.68ZM-190.49 0V0H-195.02V-.45H-190.49ZM-197.29 0V0H-201.83V-.45H-197.29ZM-204.09 0V0H-208.63V-.45H-204.09ZM-210.9 0V0H-215.43V-.45H-210.9ZM-217.7 0V0H-222.23V-.45H-217.7ZM-224.5 0V0H-229.04V-.45H-224.5ZM-231.3 0V0H-235.84V-.45H-231.3ZM-238.11 0V0H-242.64V-.45H-238.11ZM-244.91 0V0H-249.45V-.45H-244.91ZM-251.71 0V0H-256.25V-.45H-251.71ZM-258.52 0V0H-263.05V-.45H-258.52ZM-265.32 0V0H-269.85V-.45H-265.32ZM-272.12 0V0H-276.66V-.45H-272.12ZM-278.93 0V0H-283.46V-.45H-278.93ZM-285.73 0V0H-290.26V-.45H-285.73ZM-292.53 0V0H-297.07V-.45H-292.53ZM-299.33 0V0H-303.87V-.45H-299.33ZM-306.14 0V0H-310.67V-.45H-306.14ZM-312.94 0V0H-317.48V-.45H-312.94ZM-319.74 0V0H-324.28V-.45H-319.74ZM-326.55 0V0H-329.77V-.45H-326.55ZM6.8 0V0H2.26V-.45H6.8Z"/>
<path transform="matrix(.75,0,0,.75,68.8275,101.917499)" d="M0 0V0L4.71-2.72 4.91-2.84 5.14-2.44 4.94-2.33 .23 .39 .03 .5-.2 .11Z"/>
<path transform="matrix(.75,0,0,.75,69,101.917499)" d="M0 0V0L4.71 2.72 4.91 2.83 4.68 3.23 4.48 3.11-.23 .39-.43 .28-.2-.12Z"/>
<path transform="matrix(.75,0,0,.75,115.3425,74.542499)" d="M0 0V0 6.8 6.9L-.07 6.96-4.6 11.5-4.67 11.57H-4.76-82.32-82.54V11.34 0-.23H-82.32-.23 0V0ZM-.45 0H-.23V.23H-82.32V0H-82.09V11.34H-82.32V11.11H-4.76V11.34L-4.92 11.18-.39 6.64-.23 6.8H-.45V0Z"/>
<path transform="matrix(.75,0,0,.75,53.6025,74.340007)" d="M0 0V0H377.8 378.02V.23 61.46 61.68H377.8 0-.22V61.46 .23 0H0ZM0 .46V.23H.23V61.46H0V61.23H377.8V61.46H377.57V.23H377.8V.46H0Z"/>
</g>
<text xml:space="preserve" transform="matrix(.75 0 0 .75 0 0)" font-size="5.44021" font-family="F2"><tspan y="107.04" x="76 77.14244 80.02575 82.85466 85.73797 87.206829 88.62128 90.09013 92.81024 94.55111 97.43442 100.317729 101.78658 104.61549 106.08435 109.10994 110.5788 113.462108 114.55015 117.43346 120.153568 123.03687 124.77774 126.2466 127.66105 129.1299 133.26445 136.29003 139.17333 140.98496 143.81386">loop : create 4 player  [Guard]</tspan></text>
<g clip-path="url(#clip_11)">
<path transform="matrix(.75,0,0,.75,0,0)" d="M166.72 188.24H171.25V225.88H166.72V188.24Z" fill="#ffffff"/>
<path transform="matrix(.75,0,0,.75,125.04,141.00749)" d="M0 0V0H4.53 4.76V.23 37.87 38.1H4.53 0-.23V37.87 .23 0H0ZM0 .46V.23H.22V37.87H0V37.65H4.53V37.87H4.3V.23H4.53V.46H0Z"/>
<path transform="matrix(.75,0,0,.75,0,0)" d="M87.35 188.24H91.88V234.95H87.35V188.24Z" fill="#ffffff"/>
<path transform="matrix(.75,0,0,.75,65.5125,141.00749)" d="M0 0V0H4.53 4.76V.23 46.94 47.17H4.53 0-.23V46.94 .23 0H0ZM0 .46V.23H.23V46.94H0V46.72H4.53V46.94H4.31V.23H4.53V.46H0Z"/>
</g>
<text xml:space="preserve" transform="matrix(.75 0 0 .75 0 0)" font-size="5.44021" font-family="F2"><tspan y="186.56" x="93.44 96.46559 97.93445 99.3489 102.37449 105.2578 108.957149 110.426 114.05457 115.197017 118.08032 121.453258 125.0982 127.98151 132.17047 135.05377 139.35153 142.23484 143.9757 146.859 148.00145 150.88475 153.60486 156.48816 158.22902 160.94913">2: new BigTwoGame(players)</tspan></text>
<g clip-path="url(#clip_12)">
<path transform="matrix(.75,0,0,.75,68.88,141.00749)" d="M0 0V0H74.92 75.15V.46H74.92 0-.23V0Z"/>
<path transform="matrix(.75,0,0,.75,0,0)" d="M166.72 188.28 161.73 185.11V191Z" fill-rule="evenodd"/>
<path transform="matrix(.75,0,0,.75,124.9425,141.35251)" d="M0 0V0L-4.99-3.17-4.86-3.37H-4.64V2.53H-4.86L-4.97 2.33 .02-.39 .12-.19 0 0ZM.25-.38 .57-.18 .23 .01-4.76 2.73-5.09 2.91V2.53-3.37-3.78L-4.74-3.56 .25-.38Z"/>
<path transform="matrix(.75,0,0,.75,0,0)" d="M246.08 193.23H250.62V216.81H246.08V193.23Z" fill="#ffffff"/>
<path transform="matrix(.75,0,0,.75,184.56,144.75)" d="M0 0V0H4.54 4.77V.23 23.81 24.04H4.54 0-.22V23.81 .23 0H0ZM0 .46V.23H.23V23.81H0V23.59H4.54V23.81H4.31V.23H4.54V.46H0Z"/>
</g>
<text xml:space="preserve" transform="matrix(.75 0 0 .75 0 0)" font-size="5.44021" font-family="F2"><tspan y="191.68" x="189.6 192.62558 194.09444 197.12001 198.53447 200.00333 203.0289 205.9122 209.61154 211.026 215.05176 217.93506 220.65517 223.37528 225.11614">2.1: new Deck()</tspan></text>
<g clip-path="url(#clip_13)">
<path transform="matrix(.75,0,0,.75,128.4375,144.75)" d="M0 0V0H74.92 75.15V.46H74.92 0-.23V0Z"/>
<path transform="matrix(.75,0,0,.75,0,0)" d="M246.08 193.27 241.1 190.1V195.99Z" fill-rule="evenodd"/>
<path transform="matrix(.75,0,0,.75,184.47,145.095)" d="M0 0V0L-4.99-3.17-4.86-3.37H-4.64V2.53H-4.86L-4.97 2.33 .02-.39 .12-.19 0 0ZM.25-.38 .57-.18 .23 .01-4.76 2.73-5.09 2.91V2.53-3.37-3.78L-4.74-3.56 .25-.38Z"/>
<path transform="matrix(.75,0,0,.75,0,0)" d="M337.24 196.4H341.78V207.74H337.24V196.4Z" fill="#ffffff"/>
<path transform="matrix(.75,0,0,.75,252.93,147.135)" d="M0 0V0H4.54 4.77V.23 11.56 11.79H4.54 0-.22V11.56 .23 0H0ZM0 .45V.23H.23V11.56H0V11.34H4.54V11.56H4.31V.23H4.54V.45H0Z"/>
</g>
<text xml:space="preserve" transform="matrix(.75 0 0 .75 0 0)" font-size="5.44021" font-family="F2"><tspan y="194.72" x="261.6 264.62559 266.09443 269.12 270.53443 273.56 275.02885 276.49769 279.52326 282.40657 286.1059 287.52033 291.54609 294.37498 296.18659 299.01548 300.8271 303.54719 306.53929 307.68174 309.09617 310.565 311.97944 313.79106 316.61994 319.6455 322.42">2.1.1: new Card(suit, rank)</tspan></text>
<g clip-path="url(#clip_14)">
<path transform="matrix(.75,0,0,.75,187.965,147.135)" d="M0 0V0H86.67 86.9V.45H86.67 0-.23V0Z"/>
<path transform="matrix(.75,0,0,.75,0,0)" d="M337.24 196.45 332.26 193.27V199.17Z" fill-rule="evenodd"/>
<path transform="matrix(.75,0,0,.75,252.84,147.48)" d="M0 0V0L-4.99-3.17-4.86-3.37H-4.64V2.53H-4.86L-4.97 2.33 .02-.39 .12-.19 0 0ZM.25-.38 .57-.18 .23 .01-4.76 2.73-5.09 2.91V2.53-3.37-3.78L-4.74-3.56 .25-.38Z"/>
<path transform="matrix(.75,0,0,.75,247.8675,155.97751)" d="M0 0V0H-4.54V-.45H0ZM-6.81 0V0H-11.34V-.45H-6.81ZM-13.61 0V0H-18.14V-.45H-13.61ZM-20.41 0V0H-24.95V-.45H-20.41ZM-27.22 0V0H-31.75V-.45H-27.22ZM-34.02 0V0H-38.55V-.45H-34.02ZM-40.82 0V0H-45.36V-.45H-40.82ZM-47.62 0V0H-52.16V-.45H-47.62ZM-54.43 0V0H-58.96V-.45H-54.43ZM-61.23 0V0H-65.77V-.45H-61.23ZM-68.03 0V0H-72.57V-.45H-68.03ZM-74.84 0V0H-79.37V-.45H-74.84ZM6.8 0V0H2.26V-.45H6.8Z"/>
<path transform="matrix(.75,0,0,.75,187.88249,155.6625)" d="M0 0V0L4.71-2.72 4.91-2.84 5.14-2.44 4.94-2.33 .23 .39 .03 .5-.2 .11Z"/>
<path transform="matrix(.75,0,0,.75,188.0475,155.6625)" d="M0 0V0L4.71 2.72 4.91 2.83 4.68 3.23 4.48 3.11-.23 .39-.43 .28-.2-.12Z"/>
<path transform="matrix(.75,0,0,.75,179.4975,162.78)" d="M0 0V0H-4.54V-.45H0ZM-6.81 0V0H-11.34V-.45H-6.81ZM-13.61 0V0H-18.14V-.45H-13.61ZM-20.41 0V0H-24.95V-.45H-20.41ZM-27.22 0V0H-31.75V-.45H-27.22ZM-34.02 0V0H-38.55V-.45H-34.02ZM-40.82 0V0H-45.36V-.45H-40.82ZM-47.62 0V0H-52.16V-.45H-47.62ZM-54.43 0V0H-58.96V-.45H-54.43ZM-61.23 0V0H-65.77V-.45H-61.23ZM-68.03 0V0H-68.08V-.45H-68.03ZM6.8 0V0H2.26V-.45H6.8Z"/>
<path transform="matrix(.75,0,0,.75,128.355,162.465)" d="M0 0V0L4.71-2.72 4.91-2.84 5.14-2.44 4.94-2.33 .23 .39 .03 .5-.2 .11Z"/>
<path transform="matrix(.75,0,0,.75,128.52,162.465)" d="M0 0V0L4.71 2.72 4.91 2.83 4.68 3.23 4.48 3.11-.23 .39-.43 .28-.2-.12Z"/>
<path transform="matrix(.75,0,0,.75,119.97,169.5825)" d="M0 0V0H-4.54V-.45H0ZM-6.81 0V0H-11.34V-.45H-6.81ZM-13.61 0V0H-18.14V-.45H-13.61ZM-20.41 0V0H-24.95V-.45H-20.41ZM-27.22 0V0H-31.75V-.45H-27.22ZM-34.02 0V0H-38.55V-.45H-34.02ZM-40.82 0V0H-45.36V-.45H-40.82ZM-47.62 0V0H-52.16V-.45H-47.62ZM-54.43 0V0H-58.96V-.45H-54.43ZM-61.23 0V0H-65.77V-.45H-61.23ZM-68.03 0V0H-68.08V-.45H-68.03ZM6.8 0V0H2.26V-.45H6.8Z"/>
<path transform="matrix(.75,0,0,.75,68.8275,169.2675)" d="M0 0V0L4.71-2.72 4.91-2.84 5.14-2.44 4.94-2.33 .23 .39 .03 .5-.2 .11Z"/>
<path transform="matrix(.75,0,0,.75,69,169.2675)" d="M0 0V0L4.71 2.72 4.91 2.83 4.68 3.23 4.48 3.11-.23 .39-.43 .28-.2-.12Z"/>
<path transform="matrix(.75,0,0,.75,244.5975,124.545)" d="M0 0V0 6.8 6.9L-.06 6.96-4.6 11.5-4.67 11.56H-4.76-88.21-88.44V11.34 0-.23H-88.21-.22 0V0ZM-.45 0H-.22V.23H-88.21V0H-87.98V11.34H-88.21V11.11H-4.76V11.34L-4.92 11.18-.38 6.64-.22 6.8H-.45V0Z"/>
<path transform="matrix(.75,0,0,.75,178.44,124.3425)" d="M0 0V0H122.91 123.13V.23 61.45 61.68H122.91 0-.23V61.45 .23 0H0ZM0 .45V.23H.23V61.45H0V61.23H122.91V61.45H122.68V.23H122.91V.45H0Z"/>
</g>
<text xml:space="preserve" transform="matrix(.75 0 0 .75 0 0)" font-size="5.44021" font-family="F2"><tspan y="173.76" x="242.4 243.54245 246.42575 249.25466 252.13796 253.60681 255.02127 256.4901 257.57817 260.60374 261.7462 263.21504 264.30308 267.18638 268.32884 269.41688 271.97377 274.85707 276.3259 279.35148 282.37705 283.8459 286.56599 289.44929 291.19017 294.07347 296.79356 298.2624 299.67683 301.14567 305.2802 308.3058 311.1891 313.0007 315.8296">loop : initialize 52 cards  [Guard]</tspan></text>
<g clip-path="url(#clip_15)">
<path transform="matrix(.75,0,0,.75,0,0)" d="M175.79 688.94H180.32V700.28H175.79V688.94Z" fill="#ffffff"/>
<path transform="matrix(.75,0,0,.75,131.8425,516.53256)" d="M0 0V0H4.54 4.77V.23 11.56 11.79H4.54 0-.22V11.56 .23 0H0ZM0 .45V.23H.23V11.56H0V11.34H4.54V11.56H4.31V.23H4.54V.45H0Z"/>
<path transform="matrix(.75,0,0,.75,0,0)" d="M171.25 747.45H175.79V798.24H171.25V747.45Z" fill="#ffffff"/>
<path transform="matrix(.75,0,0,.75,128.4375,560.415)" d="M0 0V0H4.54 4.76V.23 51.02 51.25H4.54 0-.23V51.02 .23 0H0ZM0 .45V.23H.23V51.02H0V50.79H4.54V51.02H4.31V.23H4.54V.45H0Z"/>
<path transform="matrix(.75,0,0,.75,0,0)" d="M171.25 666.26H175.79V709.35H171.25V666.26Z" fill="#ffffff"/>
<path transform="matrix(.75,0,0,.75,128.4375,499.52998)" d="M0 0V0H4.54 4.76V.22 43.31 43.54H4.54 0-.23V43.31 .22 0H0ZM0 .45V.22H.23V43.31H0V43.08H4.54V43.31H4.31V.22H4.54V.45H0Z"/>
<path transform="matrix(.75,0,0,.75,0,0)" d="M171.25 600.95H175.79V612.29H171.25V600.95Z" fill="#ffffff"/>
<path transform="matrix(.75,0,0,.75,128.4375,450.5475)" d="M0 0V0H4.54 4.77V.23 11.56 11.79H4.54 0-.22V11.56 .23 0H0ZM0 .45V.23H.23V11.56H0V11.34H4.54V11.56H4.31V.23H4.54V.45H0Z"/>
<path transform="matrix(.75,0,0,.75,0,0)" d="M171.25 473.97H175.79V578.28H171.25V473.97Z" fill="#ffffff"/>
<path transform="matrix(.75,0,0,.75,128.4375,355.305)" d="M0 0V0H4.54 4.76V.23 104.54 104.76H4.54 0-.23V104.54 .23 0H0ZM0 .45V.23H.23V104.54H0V104.31H4.54V104.54H4.31V.23H4.54V.45H0Z"/>
<path transform="matrix(.75,0,0,.75,0,0)" d="M166.72 253.55H171.25V814.11H166.72V253.55Z" fill="#ffffff"/>
<path transform="matrix(.75,0,0,.75,125.04,189.99)" d="M0 0V0H4.53 4.76V.23 560.79 561.02H4.53 0-.23V560.79 .23 0H0ZM0 .46V.23H.22V560.79H0V560.57H4.53V560.79H4.3V.23H4.53V.46H0Z"/>
<path transform="matrix(.75,0,0,.75,0,0)" d="M87.35 253.55H91.88V1051.54H87.35V253.55Z" fill="#ffffff"/>
<path transform="matrix(.75,0,0,.75,65.5125,189.99)" d="M0 0V0H4.53 4.76V.23 798.22 798.45H4.53 0-.23V798.22 .23 0H0ZM0 .46V.23H.23V798.22H0V797.99H4.53V798.22H4.31V.23H4.53V.46H0Z"/>
</g>
<text xml:space="preserve" transform="matrix(.75 0 0 .75 0 0)" font-size="5.44021" font-family="F2"><tspan y="252" x="94.4 97.42559 98.89445 100.3089 103.19221 104.33465 107.21796 110.54105 114.2404 117.12371 121.25827 124.14158 128.49376 131.37706 132.79152 136.49086 137.90532 140.78862 142.60025 144.01471 148.14928 151.03258 155.38475 158.21366 160.02529">3: bigTwoGame.StartGame()</tspan></text>
<g clip-path="url(#clip_16)">
<path transform="matrix(.75,0,0,.75,68.88,189.99)" d="M0 0V0H74.92 75.15V.46H74.92 0-.23V0Z"/>
<path transform="matrix(.75,0,0,.75,0,0)" d="M166.72 253.59 161.73 250.42V256.31Z" fill-rule="evenodd"/>
<path transform="matrix(.75,0,0,.75,124.9425,190.33499)" d="M0 0V0L-4.99-3.17-4.86-3.37H-4.64V2.53H-4.86L-4.97 2.33 .02-.39 .12-.19 0 0ZM.25-.38 .57-.18 .23 .01-4.76 2.73-5.09 2.91V2.53-3.37-3.78L-4.74-3.56 .25-.38Z"/>
<path transform="matrix(.75,0,0,.75,0,0)" d="M246.08 271.69H250.62V283.03H246.08V271.69Z" fill="#ffffff"/>
<path transform="matrix(.75,0,0,.75,184.56,203.595)" d="M0 0V0H4.54 4.77V.23 11.56 11.79H4.54 0-.22V11.56 .23 0H0ZM0 .45V.23H.23V11.56H0V11.34H4.54V11.56H4.31V.23H4.54V.45H0Z"/>
</g>
<text xml:space="preserve" transform="matrix(.75 0 0 .75 0 0)" font-size="5.44021" font-family="F2"><tspan y="270.08" x="186.24 189.26558 190.73444 193.76001 195.17447 196.64333 199.52663 202.40993 205.13004 207.85015 209.2646 212.96395 215.98952 219.01509 220.64716 222.22483 223.36728 226.25058 227.99144">3.1: deck.Shuffle()</tspan></text>
<g clip-path="url(#clip_17)">
<path transform="matrix(.75,0,0,.75,128.4375,203.595)" d="M0 0V0H74.92 75.15V.46H74.92 0-.23V0Z"/>
<path transform="matrix(.75,0,0,.75,0,0)" d="M246.08 271.73 241.1 268.56V274.45Z" fill-rule="evenodd"/>
<path transform="matrix(.75,0,0,.75,184.47,203.94)" d="M0 0V0L-4.99-3.17-4.86-3.37H-4.64V2.53H-4.86L-4.97 2.33 .02-.39 .12-.19 0 0ZM.25-.38 .57-.18 .23 .01-4.76 2.73-5.09 2.91V2.53-3.37-3.78L-4.74-3.56 .25-.38Z"/>
<path transform="matrix(.75,0,0,.75,179.4975,212.445)" d="M0 0V0H-4.54V-.45H0ZM-6.81 0V0H-11.34V-.45H-6.81ZM-13.61 0V0H-18.14V-.45H-13.61ZM-20.41 0V0H-24.95V-.45H-20.41ZM-27.22 0V0H-31.75V-.45H-27.22ZM-34.02 0V0H-38.55V-.45H-34.02ZM-40.82 0V0H-45.36V-.45H-40.82ZM-47.62 0V0H-52.16V-.45H-47.62ZM-54.43 0V0H-58.96V-.45H-54.43ZM-61.23 0V0H-65.77V-.45H-61.23ZM-68.03 0V0H-68.08V-.45H-68.03ZM6.8 0V0H2.26V-.45H6.8Z"/>
<path transform="matrix(.75,0,0,.75,128.355,212.1225)" d="M0 0V0L4.71-2.72 4.91-2.84 5.14-2.44 4.94-2.33 .23 .39 .03 .5-.2 .11Z"/>
<path transform="matrix(.75,0,0,.75,128.52,212.1225)" d="M0 0V0L4.71 2.72 4.91 2.83 4.68 3.23 4.48 3.11-.23 .39-.43 .28-.2-.12Z"/>
<path transform="matrix(.75,0,0,.75,0,0)" d="M246.08 321.13H250.62V344.26H246.08V321.13Z" fill="#ffffff"/>
<path transform="matrix(.75,0,0,.75,184.56,240.67499)" d="M0 0V0H4.54 4.77V.23 23.36 23.58H4.54 0-.22V23.36 .23 0H0ZM0 .45V.23H.23V23.36H0V23.13H4.54V23.36H4.31V.23H4.54V.45H0Z"/>
</g>
<text xml:space="preserve" transform="matrix(.75 0 0 .75 0 0)" font-size="5.44021" font-family="F2"><tspan y="319.52" x="179.68 182.70557 184.17443 187.2 188.61446 190.08332 192.96662 195.84992 198.57003 201.29013 202.70459 206.73035 209.61365 212.49695 213.58499 214.72745 217.75302 220.63632 224.66208 227.54538 229.28624 232.16954 233.9104">3.2: deck.DealingCard()</tspan></text>
<g clip-path="url(#clip_18)">
<path transform="matrix(.75,0,0,.75,128.4375,240.67499)" d="M0 0V0H74.92 75.15V.46H74.92 0-.23V0Z"/>
<path transform="matrix(.75,0,0,.75,0,0)" d="M246.08 321.17 241.1 317.99V323.89Z" fill-rule="evenodd"/>
<path transform="matrix(.75,0,0,.75,184.47,241.01999)" d="M0 0V0L-4.99-3.17-4.86-3.37H-4.64V2.53H-4.86L-4.97 2.33 .02-.39 .12-.19 0 0ZM.25-.38 .57-.18 .23 .01-4.76 2.73-5.09 2.91V2.53-3.37-3.78L-4.74-3.56 .25-.38Z"/>
<path transform="matrix(.75,0,0,.75,0,0)" d="M428.4 323.85H432.94V335.18H428.4V323.85Z" fill="#ffffff"/>
<path transform="matrix(.75,0,0,.75,321.3,242.715)" d="M0 0V0H4.54 4.77V.23 11.56 11.79H4.54 0-.22V11.56 .23 0H0ZM0 .45V.23H.23V11.56H0V11.34H4.54V11.56H4.31V.23H4.54V.45H0Z"/>
</g>
<text xml:space="preserve" transform="matrix(.75 0 0 .75 0 0)" font-size="5.44021" font-family="F2"><tspan y="322.24" x="300.96 303.98558 305.4544 308.47999 309.8944 312.91999 314.38883 315.85768 318.74098 319.829 322.7123 325.4324 328.3157 330.05659 331.52543 335.49678 338.38008 341.10017 343.98347 345.12593 347.846 350.7293 354.70066 357.58396 359.39558 362.22447 364.03608 366.70176 369.58506 371.39668 374.22557">3.2.1: player.ReceiveCard(card)</tspan></text>
<g clip-path="url(#clip_19)">
<path transform="matrix(.75,0,0,.75,187.965,242.715)" d="M0 0V0H177.83 178.06V.45H177.83 0-.23V0Z"/>
<path transform="matrix(.75,0,0,.75,0,0)" d="M428.4 323.89 423.42 320.71V326.61Z" fill-rule="evenodd"/>
<path transform="matrix(.75,0,0,.75,321.21,243.06)" d="M0 0V0L-4.99-3.17-4.86-3.37H-4.64V2.53H-4.86L-4.97 2.33 .02-.39 .12-.19 0 0ZM.25-.38 .57-.18 .23 .01-4.76 2.73-5.09 2.91V2.53-3.37-3.78L-4.74-3.56 .25-.38Z"/>
<path transform="matrix(.75,0,0,.75,316.2375,251.5575)" d="M0 0V0H-4.54V-.45H0ZM-6.81 0V0H-11.34V-.45H-6.81ZM-13.61 0V0H-18.14V-.45H-13.61ZM-20.41 0V0H-24.95V-.45H-20.41ZM-27.22 0V0H-31.75V-.45H-27.22ZM-34.02 0V0H-38.55V-.45H-34.02ZM-40.82 0V0H-45.36V-.45H-40.82ZM-47.62 0V0H-52.16V-.45H-47.62ZM-54.43 0V0H-58.96V-.45H-54.43ZM-61.23 0V0H-65.77V-.45H-61.23ZM-68.03 0V0H-72.57V-.45H-68.03ZM-74.84 0V0H-79.37V-.45H-74.84ZM-81.64 0V0H-86.17V-.45H-81.64ZM-88.44 0V0H-92.98V-.45H-88.44ZM-95.25 0V0H-99.78V-.45H-95.25ZM-102.05 0V0H-106.58V-.45H-102.05ZM-108.85 0V0H-113.39V-.45H-108.85ZM-115.65 0V0H-120.19V-.45H-115.65ZM-122.46 0V0H-126.99V-.45H-122.46ZM-129.26 0V0H-133.8V-.45H-129.26ZM-136.06 0V0H-140.6V-.45H-136.06ZM-142.87 0V0H-147.4V-.45H-142.87ZM-149.67 0V0H-154.2V-.45H-149.67ZM-156.47 0V0H-161.01V-.45H-156.47ZM-163.27 0V0H-167.81V-.45H-163.27ZM-170.08 0V0H-171.03V-.45H-170.08ZM6.8 0V0H2.26V-.45H6.8Z"/>
<path transform="matrix(.75,0,0,.75,187.88249,251.2425)" d="M0 0V0L4.71-2.72 4.91-2.84 5.14-2.44 4.94-2.33 .23 .39 .03 .5-.2 .11Z"/>
<path transform="matrix(.75,0,0,.75,188.0475,251.2425)" d="M0 0V0L4.71 2.72 4.91 2.83 4.68 3.23 4.48 3.11-.23 .39-.43 .28-.2-.12Z"/>
<path transform="matrix(.75,0,0,.75,179.4975,258.36003)" d="M0 0V0H-4.54V-.45H0ZM-6.81 0V0H-11.34V-.45H-6.81ZM-13.61 0V0H-18.14V-.45H-13.61ZM-20.41 0V0H-24.95V-.45H-20.41ZM-27.22 0V0H-31.75V-.45H-27.22ZM-34.02 0V0H-38.55V-.45H-34.02ZM-40.82 0V0H-45.36V-.45H-40.82ZM-47.62 0V0H-52.16V-.45H-47.62ZM-54.43 0V0H-58.96V-.45H-54.43ZM-61.23 0V0H-65.77V-.45H-61.23ZM-68.03 0V0H-68.08V-.45H-68.03ZM6.8 0V0H2.26V-.45H6.8Z"/>
<path transform="matrix(.75,0,0,.75,128.355,258.04499)" d="M0 0V0L4.71-2.72 4.91-2.84 5.14-2.44 4.94-2.33 .23 .39 .03 .5-.2 .11Z"/>
<path transform="matrix(.75,0,0,.75,128.52,258.04499)" d="M0 0V0L4.71 2.72 4.91 2.83 4.68 3.23 4.48 3.11-.23 .39-.43 .28-.2-.12Z"/>
<path transform="matrix(.75,0,0,.75,268.41,224.205)" d="M0 0V0 6.81 6.9L-.07 6.97-4.6 11.5-4.67 11.57H-4.76-114.97-115.2V11.34 0-.22H-114.97-.23 0V0ZM-.45 0H-.23V.23H-114.97V0H-114.74V11.34H-114.97V11.12H-4.76V11.34L-4.92 11.18-.39 6.65-.23 6.81H-.45V0Z"/>
<path transform="matrix(.75,0,0,.75,182.1825,224.01)" d="M0 0V0H199.55 199.78V.22 57.82 58.05H199.55 0-.23V57.82 .22 0H0ZM0 .45V.22H.23V57.82H0V57.59H199.55V57.82H199.33V.22H199.55V.45H0Z"/>
</g>
<text xml:space="preserve" transform="matrix(.75 0 0 .75 0 0)" font-size="5.44021" font-family="F2"><tspan y="306.56" x="247.52 248.66246 251.54576 254.37467 257.25798 258.7268 260.14125 261.61009 264.63566 267.66123 269.13008 270.2181 271.36058 272.775 275.6583 276.80076 277.9432 279.35765 282.24095 283.3834 286.2667 288.9868 291.81568 293.6273 296.34739 297.7618 300.6451 303.5284 304.94285 306.41169 309.43727 312.46284 313.93168 316.65177 319.53507 321.27595 324.15925 326.87934 328.29377 329.7626 331.17704 335.366 338.39158 341.27488 343.01576 345.89906">loop : until all players got 13 cards  [Guard]</tspan></text>
<g clip-path="url(#clip_20)">
<path transform="matrix(.75,0,0,.75,0,0)" d="M428.4 385.07H432.94V396.41H428.4V385.07Z" fill="#ffffff"/>
<path transform="matrix(.75,0,0,.75,321.3,288.6375)" d="M0 0V0H4.54 4.77V.23 11.56 11.79H4.54 0-.22V11.56 .23 0H0ZM0 .45V.23H.23V11.56H0V11.34H4.54V11.56H4.31V.23H4.54V.45H0Z"/>
</g>
<text xml:space="preserve" transform="matrix(.75 0 0 .75 0 0)" font-size="5.44021" font-family="F2"><tspan y="383.52" x="254.72 257.74559 259.21443 262.24 263.65443 265.12327 268.00657 269.0946 271.9779 274.698 277.5813 279.3929 280.80735 284.7787 287.662 290.38209 294.40785 295.49589 298.52146 301.45918 304.7823 307.80787 309.61949 312.50279 315.38609 317.12696 318.86784 320.33668 321.7511 323.21995 326.10325 328.98655 331.81544 332.9579 335.8412 338.7245">3.3: player.HasClubThree() : boolean</tspan></text>
<g clip-path="url(#clip_21)">
<path transform="matrix(.75,0,0,.75,128.4375,288.6375)" d="M0 0V0H257.2 257.43V.45H257.2 0-.23V0Z"/>
<path transform="matrix(.75,0,0,.75,0,0)" d="M428.4 385.12 423.42 381.94V387.84Z" fill-rule="evenodd"/>
<path transform="matrix(.75,0,0,.75,321.21,288.98249)" d="M0 0V0L-4.99-3.17-4.86-3.37H-4.64V2.53H-4.86L-4.97 2.33 .02-.39 .12-.19 0 0ZM.25-.38 .57-.18 .23 .01-4.76 2.73-5.09 2.91V2.53-3.37-3.78L-4.74-3.56 .25-.38Z"/>
<path transform="matrix(.75,0,0,.75,316.2375,297.48)" d="M0 0V0H-4.54V-.46H0ZM-6.81 0V0H-11.34V-.46H-6.81ZM-13.61 0V0H-18.14V-.46H-13.61ZM-20.41 0V0H-24.95V-.46H-20.41ZM-27.22 0V0H-31.75V-.46H-27.22ZM-34.02 0V0H-38.55V-.46H-34.02ZM-40.82 0V0H-45.36V-.46H-40.82ZM-47.62 0V0H-52.16V-.46H-47.62ZM-54.43 0V0H-58.96V-.46H-54.43ZM-61.23 0V0H-65.77V-.46H-61.23ZM-68.03 0V0H-72.57V-.46H-68.03ZM-74.84 0V0H-79.37V-.46H-74.84ZM-81.64 0V0H-86.17V-.46H-81.64ZM-88.44 0V0H-92.98V-.46H-88.44ZM-95.25 0V0H-99.78V-.46H-95.25ZM-102.05 0V0H-106.58V-.46H-102.05ZM-108.85 0V0H-113.39V-.46H-108.85ZM-115.65 0V0H-120.19V-.46H-115.65ZM-122.46 0V0H-126.99V-.46H-122.46ZM-129.26 0V0H-133.8V-.46H-129.26ZM-136.06 0V0H-140.6V-.46H-136.06ZM-142.87 0V0H-147.4V-.46H-142.87ZM-149.67 0V0H-154.2V-.46H-149.67ZM-156.47 0V0H-161.01V-.46H-156.47ZM-163.27 0V0H-167.81V-.46H-163.27ZM-170.08 0V0H-174.61V-.46H-170.08ZM-176.88 0V0H-181.42V-.46H-176.88ZM-183.68 0V0H-188.22V-.46H-183.68ZM-190.49 0V0H-195.02V-.46H-190.49ZM-197.29 0V0H-201.83V-.46H-197.29ZM-204.09 0V0H-208.63V-.46H-204.09ZM-210.9 0V0H-215.43V-.46H-210.9ZM-217.7 0V0H-222.23V-.46H-217.7ZM-224.5 0V0H-229.04V-.46H-224.5ZM-231.3 0V0H-235.84V-.46H-231.3ZM-238.11 0V0H-242.64V-.46H-238.11ZM-244.91 0V0H-249.45V-.46H-244.91ZM6.8 0V0H2.26V-.46H6.8Z"/>
<path transform="matrix(.75,0,0,.75,128.355,297.165)" d="M0 0V0L4.71-2.72 4.91-2.84 5.14-2.44 4.94-2.33 .23 .39 .03 .5-.2 .11Z"/>
<path transform="matrix(.75,0,0,.75,128.52,297.165)" d="M0 0V0L4.71 2.72 4.91 2.83 4.68 3.23 4.48 3.11-.23 .39-.43 .28-.2-.12Z"/>
<path transform="matrix(.75,0,0,.75,0,0)" d="M428.4 430.88H432.94V442.22H428.4V430.88Z" fill="#ffffff"/>
<path transform="matrix(.75,0,0,.75,321.3,322.9875)" d="M0 0V0H4.54 4.77V.23 11.56 11.79H4.54 0-.22V11.56 .23 0H0ZM0 .45V.23H.23V11.56H0V11.34H4.54V11.56H4.31V.23H4.54V.45H0Z"/>
</g>
<text xml:space="preserve" transform="matrix(.75 0 0 .75 0 0)" font-size="5.44021" font-family="F2"><tspan y="429.28" x="249.76 252.78557 254.25443 257.28 258.69444 260.16328 263.04658 264.1346 267.0179 269.738 272.6213 274.43293 275.84736 279.5467 280.63475 283.51805 286.23814 290.2639 293.1472 294.88807 297.77137 299.51225 301.32386 302.73829 304.1527 305.62156 308.34165 311.22496 312.96583 315.84913 319.4777 322.4154 323.82984 325.29869 328.18199 329.92286 332.94844 336.64778 339.53108 340.6191 343.64469">3.4: player.PlayCard() : cardPatternValue</tspan></text>
<g clip-path="url(#clip_22)">
<path transform="matrix(.75,0,0,.75,128.4375,322.9875)" d="M0 0V0H257.2 257.43V.45H257.2 0-.23V0Z"/>
<path transform="matrix(.75,0,0,.75,0,0)" d="M428.4 430.92 423.42 427.75V433.64Z" fill-rule="evenodd"/>
<path transform="matrix(.75,0,0,.75,321.21,323.3325)" d="M0 0V0L-4.99-3.17-4.86-3.37H-4.64V2.53H-4.86L-4.97 2.33 .02-.39 .12-.19 0 0ZM.25-.38 .57-.18 .23 .01-4.76 2.73-5.09 2.91V2.53-3.37-3.78L-4.74-3.56 .25-.38Z"/>
<path transform="matrix(.75,0,0,.75,316.2375,331.83753)" d="M0 0V0H-4.54V-.46H0ZM-6.81 0V0H-11.34V-.46H-6.81ZM-13.61 0V0H-18.14V-.46H-13.61ZM-20.41 0V0H-24.95V-.46H-20.41ZM-27.22 0V0H-31.75V-.46H-27.22ZM-34.02 0V0H-38.55V-.46H-34.02ZM-40.82 0V0H-45.36V-.46H-40.82ZM-47.62 0V0H-52.16V-.46H-47.62ZM-54.43 0V0H-58.96V-.46H-54.43ZM-61.23 0V0H-65.77V-.46H-61.23ZM-68.03 0V0H-72.57V-.46H-68.03ZM-74.84 0V0H-79.37V-.46H-74.84ZM-81.64 0V0H-86.17V-.46H-81.64ZM-88.44 0V0H-92.98V-.46H-88.44ZM-95.25 0V0H-99.78V-.46H-95.25ZM-102.05 0V0H-106.58V-.46H-102.05ZM-108.85 0V0H-113.39V-.46H-108.85ZM-115.65 0V0H-120.19V-.46H-115.65ZM-122.46 0V0H-126.99V-.46H-122.46ZM-129.26 0V0H-133.8V-.46H-129.26ZM-136.06 0V0H-140.6V-.46H-136.06ZM-142.87 0V0H-147.4V-.46H-142.87ZM-149.67 0V0H-154.2V-.46H-149.67ZM-156.47 0V0H-161.01V-.46H-156.47ZM-163.27 0V0H-167.81V-.46H-163.27ZM-170.08 0V0H-174.61V-.46H-170.08ZM-176.88 0V0H-181.42V-.46H-176.88ZM-183.68 0V0H-188.22V-.46H-183.68ZM-190.49 0V0H-195.02V-.46H-190.49ZM-197.29 0V0H-201.83V-.46H-197.29ZM-204.09 0V0H-208.63V-.46H-204.09ZM-210.9 0V0H-215.43V-.46H-210.9ZM-217.7 0V0H-222.23V-.46H-217.7ZM-224.5 0V0H-229.04V-.46H-224.5ZM-231.3 0V0H-235.84V-.46H-231.3ZM-238.11 0V0H-242.64V-.46H-238.11ZM-244.91 0V0H-249.45V-.46H-244.91ZM6.8 0V0H2.26V-.46H6.8Z"/>
<path transform="matrix(.75,0,0,.75,128.355,331.51499)" d="M0 0V0L4.71-2.72 4.91-2.84 5.14-2.44 4.94-2.33 .23 .39 .03 .5-.2 .11Z"/>
<path transform="matrix(.75,0,0,.75,128.52,331.51499)" d="M0 0V0L4.71 2.72 4.91 2.83 4.68 3.23 4.48 3.11-.23 .39-.43 .28-.2-.12Z"/>
</g>
<text xml:space="preserve" transform="matrix(.75 0 0 .75 0 0)" font-size="5.44021" font-family="F2"><tspan y="463.36" x="171.52 174.54558 176.01444 179.04001 180.45447 181.92333 185.89467 188.77797 193.13014 196.01345 198.89675 200.6376 201.78006 204.80564 207.68894 211.31752 212.45998 215.01688 217.90018 219.7118">3.5: ComparingSize()</tspan></text>
<g clip-path="url(#clip_23)">
<path transform="matrix(.75,0,0,.75,128.4375,348.5025)" d="M0 0V0H27.21 27.44V.45H27.21 0-.23V0Z"/>
<path transform="matrix(.75,0,0,.75,149.0175,348.6675)" d="M0 0V0 9.08 9.3H-.45V9.08 0-.22H0Z"/>
<path transform="matrix(.75,0,0,.75,148.845,355.64253)" d="M0 0V0H-22.72-22.95V-.45H-22.72 0 .23V0Z"/>
<path transform="matrix(.75,0,0,.75,0,0)" d="M175.79 474.01 180.78 476.73V470.83Z" fill-rule="evenodd"/>
<path transform="matrix(.75,0,0,.75,131.92499,355.35749)" d="M0 0V0L4.98 2.72 4.88 2.92H4.65V-2.98H4.88L5-2.79 .01 .39-.11 .2 0 0ZM-.22 .4-.56 .21-.23 .01 4.75-3.17 5.1-3.39V-2.98 2.92 3.3L4.77 3.12-.22 .4Z"/>
<path transform="matrix(.75,0,0,.75,0,0)" d="M428.4 537.46H432.94V548.8H428.4V537.46Z" fill="#ffffff"/>
<path transform="matrix(.75,0,0,.75,321.3,402.9225)" d="M0 0V0H4.54 4.77V.23 11.56 11.79H4.54 0-.22V11.56 .23 0H0ZM0 .45V.23H.23V11.56H0V11.34H4.54V11.56H4.31V.23H4.54V.45H0Z"/>
</g>
<text xml:space="preserve" transform="matrix(.75 0 0 .75 0 0)" font-size="5.44021" font-family="F2"><tspan y="535.84" x="249.76 252.78557 254.25443 257.28 258.69444 261.72 263.18885 264.65769 267.541 268.62904 271.51234 274.23243 277.11573 278.8566 280.32545 284.02479 285.11283 287.99613 290.71623 294.74198 297.62528 299.36616 302.24946 303.99034 305.80195 307.21638 308.6308 310.09965 312.81974 315.70304 317.4439 320.3272 324.02656 326.85545 328.32429 329.7387 332.622 334.43363 337.42573 341.12507 344.00837 345.0964 348.12199">3.5.2: player.PlayCard() : cardPatternValue</tspan></text>
<g clip-path="url(#clip_24)">
<path transform="matrix(.75,0,0,.75,131.8425,402.9225)" d="M0 0V0H252.66 252.89V.46H252.66 0-.23V0Z"/>
<path transform="matrix(.75,0,0,.75,0,0)" d="M428.4 537.5 423.42 534.33V540.22Z" fill-rule="evenodd"/>
<path transform="matrix(.75,0,0,.75,321.21,403.26753)" d="M0 0V0L-4.99-3.17-4.86-3.37H-4.64V2.53H-4.86L-4.97 2.33 .02-.39 .12-.19 0 0ZM.25-.38 .57-.18 .23 .01-4.76 2.73-5.09 2.91V2.53-3.37-3.78L-4.74-3.56 .25-.38Z"/>
<path transform="matrix(.75,0,0,.75,316.2375,411.77253)" d="M0 0V0H-4.54V-.46H0ZM-6.81 0V0H-11.34V-.46H-6.81ZM-13.61 0V0H-18.14V-.46H-13.61ZM-20.41 0V0H-24.95V-.46H-20.41ZM-27.22 0V0H-31.75V-.46H-27.22ZM-34.02 0V0H-38.55V-.46H-34.02ZM-40.82 0V0H-45.36V-.46H-40.82ZM-47.62 0V0H-52.16V-.46H-47.62ZM-54.43 0V0H-58.96V-.46H-54.43ZM-61.23 0V0H-65.77V-.46H-61.23ZM-68.03 0V0H-72.57V-.46H-68.03ZM-74.84 0V0H-79.37V-.46H-74.84ZM-81.64 0V0H-86.17V-.46H-81.64ZM-88.44 0V0H-92.98V-.46H-88.44ZM-95.25 0V0H-99.78V-.46H-95.25ZM-102.05 0V0H-106.58V-.46H-102.05ZM-108.85 0V0H-113.39V-.46H-108.85ZM-115.65 0V0H-120.19V-.46H-115.65ZM-122.46 0V0H-126.99V-.46H-122.46ZM-129.26 0V0H-133.8V-.46H-129.26ZM-136.06 0V0H-140.6V-.46H-136.06ZM-142.87 0V0H-147.4V-.46H-142.87ZM-149.67 0V0H-154.2V-.46H-149.67ZM-156.47 0V0H-161.01V-.46H-156.47ZM-163.27 0V0H-167.81V-.46H-163.27ZM-170.08 0V0H-174.61V-.46H-170.08ZM-176.88 0V0H-181.42V-.46H-176.88ZM-183.68 0V0H-188.22V-.46H-183.68ZM-190.49 0V0H-195.02V-.46H-190.49ZM-197.29 0V0H-201.83V-.46H-197.29ZM-204.09 0V0H-208.63V-.46H-204.09ZM-210.9 0V0H-215.43V-.46H-210.9ZM-217.7 0V0H-222.23V-.46H-217.7ZM-224.5 0V0H-229.04V-.46H-224.5ZM-231.3 0V0H-235.84V-.46H-231.3ZM-238.11 0V0H-242.64V-.46H-238.11ZM-244.91 0V0H-245.86V-.46H-244.91ZM6.8 0V0H2.26V-.46H6.8Z"/>
<path transform="matrix(.75,0,0,.75,131.7525,411.44999)" d="M0 0V0L4.71-2.72 4.91-2.84 5.14-2.44 4.94-2.33 .23 .39 .03 .5-.2 .11Z"/>
<path transform="matrix(.75,0,0,.75,131.92499,411.44999)" d="M0 0V0L4.71 2.72 4.91 2.83 4.68 3.23 4.48 3.11-.23 .39-.43 .28-.2-.12Z"/>
<path transform="matrix(.75,0,0,.75,0,0)" d="M428.4 505.71H432.94V517.05H428.4V505.71Z" fill="#ffffff"/>
<path transform="matrix(.75,0,0,.75,321.3,379.1175)" d="M0 0V0H4.54 4.77V.23 11.56 11.79H4.54 0-.22V11.56 .23 0H0ZM0 .45V.23H.23V11.56H0V11.34H4.54V11.56H4.31V.23H4.54V.45H0Z"/>
</g>
<text xml:space="preserve" transform="matrix(.75 0 0 .75 0 0)" font-size="5.44021" font-family="F2"><tspan y="504.16" x="249.28 252.30558 253.77443 256.80003 258.21446 261.24003 262.70887 264.1777 267.061 268.14906 271.03236 273.75245 276.63575 278.37663 279.84547 283.5448 286.3737 289.257 293.28276 296.16606 297.90693 300.79023 303.5103 307.20967 310.09297 312.81306 315.53315 318.9061 321.735 325.76075 328.64405 331.66963 334.55293 338.57868 341.46199 343.20286 346.08616 348.80625 350.54713">3.5.1: player.AddCardsBackToHandCards()</tspan></text>
<g clip-path="url(#clip_25)">
<path transform="matrix(.75,0,0,.75,131.8425,379.1175)" d="M0 0V0H252.66 252.89V.46H252.66 0-.23V0Z"/>
<path transform="matrix(.75,0,0,.75,0,0)" d="M428.4 505.76 423.42 502.58V508.48Z" fill-rule="evenodd"/>
<path transform="matrix(.75,0,0,.75,321.21,379.46253)" d="M0 0V0L-4.99-3.17-4.86-3.37H-4.64V2.53H-4.86L-4.97 2.33 .02-.39 .12-.19 0 0ZM.25-.38 .57-.18 .23 .01-4.76 2.73-5.09 2.91V2.53-3.37-3.78L-4.74-3.56 .25-.38Z"/>
<path transform="matrix(.75,0,0,.75,316.2375,387.96003)" d="M0 0V0H-4.54V-.46H0ZM-6.81 0V0H-11.34V-.46H-6.81ZM-13.61 0V0H-18.14V-.46H-13.61ZM-20.41 0V0H-24.95V-.46H-20.41ZM-27.22 0V0H-31.75V-.46H-27.22ZM-34.02 0V0H-38.55V-.46H-34.02ZM-40.82 0V0H-45.36V-.46H-40.82ZM-47.62 0V0H-52.16V-.46H-47.62ZM-54.43 0V0H-58.96V-.46H-54.43ZM-61.23 0V0H-65.77V-.46H-61.23ZM-68.03 0V0H-72.57V-.46H-68.03ZM-74.84 0V0H-79.37V-.46H-74.84ZM-81.64 0V0H-86.17V-.46H-81.64ZM-88.44 0V0H-92.98V-.46H-88.44ZM-95.25 0V0H-99.78V-.46H-95.25ZM-102.05 0V0H-106.58V-.46H-102.05ZM-108.85 0V0H-113.39V-.46H-108.85ZM-115.65 0V0H-120.19V-.46H-115.65ZM-122.46 0V0H-126.99V-.46H-122.46ZM-129.26 0V0H-133.8V-.46H-129.26ZM-136.06 0V0H-140.6V-.46H-136.06ZM-142.87 0V0H-147.4V-.46H-142.87ZM-149.67 0V0H-154.2V-.46H-149.67ZM-156.47 0V0H-161.01V-.46H-156.47ZM-163.27 0V0H-167.81V-.46H-163.27ZM-170.08 0V0H-174.61V-.46H-170.08ZM-176.88 0V0H-181.42V-.46H-176.88ZM-183.68 0V0H-188.22V-.46H-183.68ZM-190.49 0V0H-195.02V-.46H-190.49ZM-197.29 0V0H-201.83V-.46H-197.29ZM-204.09 0V0H-208.63V-.46H-204.09ZM-210.9 0V0H-215.43V-.46H-210.9ZM-217.7 0V0H-222.23V-.46H-217.7ZM-224.5 0V0H-229.04V-.46H-224.5ZM-231.3 0V0H-235.84V-.46H-231.3ZM-238.11 0V0H-242.64V-.46H-238.11ZM-244.91 0V0H-245.86V-.46H-244.91ZM6.8 0V0H2.26V-.46H6.8Z"/>
<path transform="matrix(.75,0,0,.75,131.7525,387.63749)" d="M0 0V0L4.71-2.72 4.91-2.84 5.14-2.44 4.94-2.33 .23 .39 .03 .5-.2 .11Z"/>
<path transform="matrix(.75,0,0,.75,131.92499,387.63749)" d="M0 0V0L4.71 2.72 4.91 2.83 4.68 3.23 4.48 3.11-.23 .39-.43 .28-.2-.12Z"/>
</g>
<text xml:space="preserve" transform="matrix(.75 0 0 .75 0 0)" font-size="5.44021" font-family="F2"><tspan y="500.8" x="154.88 156.29447 160.48343 163.509 166.3923 168.13317 171.01647">[Guard]</tspan></text>
<g clip-path="url(#clip_26)">
<path transform="matrix(.75,0,0,.75,179.63249,361.9725)" d="M0 0V0 6.8 6.89L-.07 6.96-4.6 11.49-4.67 11.56H-4.76-89.12-89.35V11.33 0-.23H-89.12-.23 0V0ZM-.46 0H-.23V.22H-89.12V0H-88.89V11.33H-89.12V11.11H-4.76V11.33L-4.92 11.17-.39 6.64-.23 6.8H-.46V0Z"/>
<path transform="matrix(.75,0,0,.75,112.792499,361.77)" d="M0 0V0H301.14 301.37V.22 81.86 82.09H301.14 0-.23V81.86 .22 0H0ZM0 .45V.22H.23V81.86H0V81.63H301.14V81.86H300.92V.22H301.14V.45H0Z"/>
</g>
<text xml:space="preserve" transform="matrix(.75 0 0 .75 0 0)" font-size="5.44021" font-family="F2"><tspan y="490.24" x="154.88 157.7633 158.90576 160.32022 161.73468 163.20354 164.618 166.08686 167.66452 169.13338 171.85349 174.73679 176.47765 179.36095 183.06029 185.94359 187.35805 188.8269 191.6558 193.46744 196.45955 200.15889 203.04219 204.18465 207.17676 210.06006 211.52892 212.61696 215.33707 216.80593 217.89397 220.91954 223.69405 226.57735 227.66539 228.80785">alt : If cardPatternValue is invalid</tspan></text>
<text xml:space="preserve" transform="matrix(.75 0 0 .75 0 0)" font-size="5.44021" font-family="F2"><tspan y="590.24" x="159.84 162.86557 164.33443 167.36 168.77446 170.24332 171.65778 174.37789 178.07723 180.96053 183.68064 186.40074 189.77367 192.79924 194.5401 197.4234 200.3067 203.67963 204.82209 209.11985 212.00315 214.72325 216.13771 219.16329 223.18904 226.07234 229.77169 231.51255">3.6: IsPassThreeTimesInRow()</tspan></text>
<g clip-path="url(#clip_27)">
<path transform="matrix(.75,0,0,.75,128.4375,443.745)" d="M0 0V0H27.21 27.44V.45H27.21 0-.23V0Z"/>
<path transform="matrix(.75,0,0,.75,149.0175,443.91)" d="M0 0V0 9.08 9.3H-.45V9.08 0-.22H0Z"/>
<path transform="matrix(.75,0,0,.75,148.845,450.885)" d="M0 0V0H-22.72-22.95V-.45H-22.72 0 .23V0Z"/>
<path transform="matrix(.75,0,0,.75,0,0)" d="M175.79 601 180.78 603.72V597.82Z" fill-rule="evenodd"/>
<path transform="matrix(.75,0,0,.75,131.92499,450.59999)" d="M0 0V0L4.98 2.72 4.88 2.92H4.65V-2.98H4.88L5-2.79 .01 .39-.11 .2 0 0ZM-.22 .4-.56 .21-.23 .01 4.75-3.17 5.1-3.39V-2.98 2.92 3.3L4.77 3.12-.22 .4Z"/>
</g>
<text xml:space="preserve" transform="matrix(.75 0 0 .75 0 0)" font-size="5.44021" font-family="F2"><tspan y="655.52" x="170.72 173.74558 175.21443 178.24 179.65447 181.12332 184.82266 186.23712 189.12042 190.86128 192.33014 196.30149 199.18479 201.74169 203.21054 207.18189 210.06519 213.09076 216.11634 219.05405 220.7949">3.7: StartNextRound()</tspan></text>
<g clip-path="url(#clip_28)">
<path transform="matrix(.75,0,0,.75,128.4375,492.72749)" d="M0 0V0H27.21 27.44V.45H27.21 0-.23V0Z"/>
<path transform="matrix(.75,0,0,.75,149.0175,492.89253)" d="M0 0V0 9.08 9.3H-.45V9.08 0-.22H0Z"/>
<path transform="matrix(.75,0,0,.75,148.845,499.8675)" d="M0 0V0H-22.72-22.95V-.45H-22.72 0 .23V0Z"/>
<path transform="matrix(.75,0,0,.75,0,0)" d="M175.79 666.31 180.78 669.03V663.13Z" fill-rule="evenodd"/>
<path transform="matrix(.75,0,0,.75,131.92499,499.5825)" d="M0 0V0L4.98 2.72 4.88 2.92H4.65V-2.98H4.88L5-2.79 .01 .39-.11 .2 0 0ZM-.22 .4-.56 .21-.23 .01 4.75-3.17 5.1-3.39V-2.98 2.92 3.3L4.77 3.12-.22 .4Z"/>
</g>
<text xml:space="preserve" transform="matrix(.75 0 0 .75 0 0)" font-size="5.44021" font-family="F2"><tspan y="648.64" x="149.44 150.85446 155.04343 158.069 160.9523 162.69316 165.57646">[Guard]</tspan></text>
<g clip-path="url(#clip_29)">
<path transform="matrix(.75,0,0,.75,169.42499,472.86)" d="M0 0V0 6.8 6.89L-.06 6.96-4.6 11.5-4.67 11.56H-4.76-80.95-81.18V11.33 0-.23H-80.95-.22 0V0ZM-.45 0H-.22V.22H-80.95V0H-80.73V11.33H-80.95V11.11H-4.76V11.33L-4.92 11.17-.38 6.64-.22 6.8H-.45V0Z"/>
<path transform="matrix(.75,0,0,.75,108.712497,472.65754)" d="M0 0V0H123.81 124.04V.22 95.92 96.15H123.81 0-.23V95.92 .22 0H0ZM0 .45V.22H.22V95.92H0V95.69H123.81V95.92H123.58V.22H123.81V.45H0Z"/>
</g>
<text xml:space="preserve" transform="matrix(.75 0 0 .75 0 0)" font-size="5.44021" font-family="F2"><tspan y="638.08" x="149.44 152.3233 153.46576 154.88022 156.29468 157.76354 159.178 160.64685 162.22452 163.69338 166.57668 169.45998 172.18009 174.90019 176.31465 177.78351 180.77562 182.58725 185.41616 188.29946 189.76831 191.18277 192.32523 196.62299 199.50629 202.2264 203.69525 204.7833 207.80887 209.27773 211.01859 213.90189">alt : If pass three times in row</tspan></text>
<text xml:space="preserve" transform="matrix(.75 0 0 .75 0 0)" font-size="5.44021" font-family="F2"><tspan y="736.8" x="169.44 172.46558 173.93444 176.96 178.37447 179.84333 182.56343 185.589 188.4723 191.19242 193.91252 197.93828 200.82158 203.54169 208.98189 210.06993 213.0955 216.12108 219.05879 220.79965 222.54051">3.8: checkHasWinner()</tspan></text>
<g clip-path="url(#clip_30)">
<path transform="matrix(.75,0,0,.75,128.4375,553.61257)" d="M0 0V0H27.21 27.44V.45H27.21 0-.23V0Z"/>
<path transform="matrix(.75,0,0,.75,149.0175,553.77749)" d="M0 0V0 9.08 9.3H-.45V9.08 0-.22H0Z"/>
<path transform="matrix(.75,0,0,.75,148.845,560.7525)" d="M0 0V0H-22.72-22.95V-.45H-22.72 0 .23V0Z"/>
<path transform="matrix(.75,0,0,.75,0,0)" d="M175.79 747.49 180.78 750.21V744.31Z" fill-rule="evenodd"/>
<path transform="matrix(.75,0,0,.75,131.92499,560.46749)" d="M0 0V0L4.98 2.72 4.88 2.92H4.65V-2.98H4.88L5-2.79 .01 .39-.11 .2 0 0ZM-.22 .4-.56 .21-.23 .01 4.75-3.17 5.1-3.39V-2.98 2.92 3.3L4.77 3.12-.22 .4Z"/>
<path transform="matrix(.75,0,0,.75,0,0)" d="M428.4 764.68H432.94V776.02H428.4V764.68Z" fill="#ffffff"/>
<path transform="matrix(.75,0,0,.75,321.3,573.3375)" d="M0 0V0H4.54 4.77V.23 11.56 11.79H4.54 0-.22V11.56 .23 0H0ZM0 .45V.23H.23V11.56H0V11.34H4.54V11.56H4.31V.23H4.54V.45H0Z"/>
</g>
<text xml:space="preserve" transform="matrix(.75 0 0 .75 0 0)" font-size="5.44021" font-family="F2"><tspan y="763.04" x="252.16 255.18558 256.65443 259.68 261.09443 264.12 265.58885 267.05769 269.94099 271.02903 273.91233 276.63243 279.51573 281.2566 282.72544 286.69679 289.58009 292.30018 296.32594 299.20924 303.50703 306.39033 307.53279 310.55836 314.5841 317.4674 319.20829 322.09159 323.83247 325.57334 327.04219 328.4566 329.92546 332.80876 335.69206 338.57536 339.6634 342.5467 345.43">3.8.1: player.HasRemainCard() : boolean</tspan></text>
<g clip-path="url(#clip_31)">
<path transform="matrix(.75,0,0,.75,131.8425,573.3375)" d="M0 0V0H252.66 252.89V.46H252.66 0-.23V0Z"/>
<path transform="matrix(.75,0,0,.75,0,0)" d="M428.4 764.72 423.42 761.55V767.44Z" fill-rule="evenodd"/>
<path transform="matrix(.75,0,0,.75,321.21,573.6825)" d="M0 0V0L-4.99-3.17-4.86-3.37H-4.64V2.53H-4.86L-4.97 2.33 .02-.39 .12-.19 0 0ZM.25-.38 .57-.18 .23 .01-4.76 2.73-5.09 2.91V2.53-3.37-3.78L-4.74-3.56 .25-.38Z"/>
<path transform="matrix(.75,0,0,.75,316.2375,582.18)" d="M0 0V0H-4.54V-.46H0ZM-6.81 0V0H-11.34V-.46H-6.81ZM-13.61 0V0H-18.14V-.46H-13.61ZM-20.41 0V0H-24.95V-.46H-20.41ZM-27.22 0V0H-31.75V-.46H-27.22ZM-34.02 0V0H-38.55V-.46H-34.02ZM-40.82 0V0H-45.36V-.46H-40.82ZM-47.62 0V0H-52.16V-.46H-47.62ZM-54.43 0V0H-58.96V-.46H-54.43ZM-61.23 0V0H-65.77V-.46H-61.23ZM-68.03 0V0H-72.57V-.46H-68.03ZM-74.84 0V0H-79.37V-.46H-74.84ZM-81.64 0V0H-86.17V-.46H-81.64ZM-88.44 0V0H-92.98V-.46H-88.44ZM-95.25 0V0H-99.78V-.46H-95.25ZM-102.05 0V0H-106.58V-.46H-102.05ZM-108.85 0V0H-113.39V-.46H-108.85ZM-115.65 0V0H-120.19V-.46H-115.65ZM-122.46 0V0H-126.99V-.46H-122.46ZM-129.26 0V0H-133.8V-.46H-129.26ZM-136.06 0V0H-140.6V-.46H-136.06ZM-142.87 0V0H-147.4V-.46H-142.87ZM-149.67 0V0H-154.2V-.46H-149.67ZM-156.47 0V0H-161.01V-.46H-156.47ZM-163.27 0V0H-167.81V-.46H-163.27ZM-170.08 0V0H-174.61V-.46H-170.08ZM-176.88 0V0H-181.42V-.46H-176.88ZM-183.68 0V0H-188.22V-.46H-183.68ZM-190.49 0V0H-195.02V-.46H-190.49ZM-197.29 0V0H-201.83V-.46H-197.29ZM-204.09 0V0H-208.63V-.46H-204.09ZM-210.9 0V0H-215.43V-.46H-210.9ZM-217.7 0V0H-222.23V-.46H-217.7ZM-224.5 0V0H-229.04V-.46H-224.5ZM-231.3 0V0H-235.84V-.46H-231.3ZM-238.11 0V0H-242.64V-.46H-238.11ZM-244.91 0V0H-245.86V-.46H-244.91ZM6.8 0V0H2.26V-.46H6.8Z"/>
<path transform="matrix(.75,0,0,.75,131.7525,581.865)" d="M0 0V0L4.71-2.72 4.91-2.84 5.14-2.44 4.94-2.33 .23 .39 .03 .5-.2 .11Z"/>
<path transform="matrix(.75,0,0,.75,131.92499,581.865)" d="M0 0V0L4.71 2.72 4.91 2.83 4.68 3.23 4.48 3.11-.23 .39-.43 .28-.2-.12Z"/>
<path transform="matrix(.75,0,0,.75,119.97,610.755)" d="M0 0V0H-4.54V-.45H0ZM-6.81 0V0H-11.34V-.45H-6.81ZM-13.61 0V0H-18.14V-.45H-13.61ZM-20.41 0V0H-24.95V-.45H-20.41ZM-27.22 0V0H-31.75V-.45H-27.22ZM-34.02 0V0H-38.55V-.45H-34.02ZM-40.82 0V0H-45.36V-.45H-40.82ZM-47.62 0V0H-52.16V-.45H-47.62ZM-54.43 0V0H-58.96V-.45H-54.43ZM-61.23 0V0H-65.77V-.45H-61.23ZM-68.03 0V0H-68.08V-.45H-68.03ZM6.8 0V0H2.26V-.45H6.8Z"/>
<path transform="matrix(.75,0,0,.75,68.8275,610.44)" d="M0 0V0L4.71-2.72 4.91-2.84 5.14-2.44 4.94-2.33 .23 .39 .03 .5-.2 .11Z"/>
<path transform="matrix(.75,0,0,.75,69,610.44)" d="M0 0V0L4.71 2.72 4.91 2.83 4.68 3.23 4.48 3.11-.23 .39-.43 .28-.2-.12Z"/>
</g>
<text xml:space="preserve" transform="matrix(.75 0 0 .75 0 0)" font-size="5.44021" font-family="F2"><tspan y="678.24" x="176 179.02558 180.49443 183.52 184.93447 187.96004 189.4289 190.89775 194.8691 196.01155 198.89485 201.77816 203.51902 206.89194 209.77524 212.65854 216.28713 217.42958 220.31288 223.03299 224.77385">3.7.1: ClearTopPlay()</tspan></text>
<g clip-path="url(#clip_32)">
<path transform="matrix(.75,0,0,.75,131.8425,509.73)" d="M0 0V0H27.21 27.44V.45H27.21 0-.23V0Z"/>
<path transform="matrix(.75,0,0,.75,152.4225,509.9025)" d="M0 0V0 9.08 9.3H-.45V9.08 0-.22H0Z"/>
<path transform="matrix(.75,0,0,.75,152.25,516.8775)" d="M0 0V0H-22.72-22.95V-.45H-22.72 0 .23V0Z"/>
<path transform="matrix(.75,0,0,.75,0,0)" d="M180.32 688.98 185.31 691.7V685.81Z" fill-rule="evenodd"/>
<path transform="matrix(.75,0,0,.75,135.3225,516.585)" d="M0 0V0L4.98 2.72 4.88 2.92H4.65V-2.98H4.88L5-2.79 .01 .39-.11 .2 0 0ZM-.22 .4-.56 .21-.23 .01 4.75-3.17 5.1-3.39V-2.98 2.92 3.3L4.77 3.12-.22 .4Z"/>
</g>
</svg>
